<svg xmlns="http://www.w3.org/2000/svg" width="778.949" height="462.388" viewBox="0 0 778.949 462.388">
  <g id="pixeltrue-web-design-1" transform="translate(-98.101 -228.697)">
    <g id="background" transform="translate(108.493 503.216)">
      <g id="Group_3" data-name="Group 3" transform="translate(674.987 45.226)">
        <g id="Group_2" data-name="Group 2">
          <path id="Path_31" data-name="Path 31" d="M1346.865,894.5a68.038,68.038,0,0,1-9.015-15.582c-1.169-2.727-2.282-5.565-3.339-8.347-.5-1.335-1.057-2.615-1.447-3.951a3.773,3.773,0,0,1,.056-3.45c0-.946.389-1.335,1.113-1.224.612-.167,1,.111,1.224.835.557-.056,1.113-.167,1.614-.222a137.762,137.762,0,0,1-6.455-31,143.247,143.247,0,0,1-.5-15.47c.056-2.393.167-4.786.39-7.234.055-.946-.056-3.617.5-4.4.612-.167,1.169-.334,1.781-.445,1-.835,1.781-.835,2.281.056a7.447,7.447,0,0,1,1.391,2.059,162,162,0,0,1,22.37,89.26c-.055,1.057,1.614,1.057,1.67,0a165.113,165.113,0,0,0-11.018-66.221c-2.059-5.231-4.341-10.351-6.9-15.359-1.169-2.337-2.449-4.619-3.729-6.845-1.057-1.837-2.115-4.063-3.9-5.287-3.45-2.337-5.453,1-5.843,4.062a115.177,115.177,0,0,0-.668,17.529,139.179,139.179,0,0,0,6.956,39.677.821.821,0,0,0,1.614-.223c0-2.226-2.5-3.172-4.4-2.226-3.339,1.614-1.447,6.232-.556,8.681,3.45,9.349,7.179,18.586,13.467,26.433a.869.869,0,1,0,1.335-1.113Z" transform="translate(-1328.378 -800.89)" fill="#e8e8e8"/>
        </g>
      </g>
      <g id="Group_5" data-name="Group 5" transform="translate(701.649 29.216)">
        <g id="Group_4" data-name="Group 4">
          <path id="Path_32" data-name="Path 32" d="M1377.91,840.11a140.756,140.756,0,0,1,3-22.037c.779-3.394,1.614-6.789,2.671-10.128.5-1.669,1.057-3.339,1.614-4.953.278-.835.556-1.669.89-2.449a7.42,7.42,0,0,1,.39-1,2.494,2.494,0,0,1,2.281-2.059c-.111.946,1.391,1.113,1.614.223,1.113-3.673,10.128-27.323,15.637-23.261,1.614,1.169,2.059,3.9,2.337,5.732.445,2.56.835,5.175,1.113,7.735.5,4.4.834,8.792.946,13.244a152.352,152.352,0,0,1-20.924,81.691.835.835,0,0,0,1.447.835,155.432,155.432,0,0,0,20.812-89.593,147.191,147.191,0,0,0-1.836-14.8c-.5-2.671-1.725-6.622-4.9-7.123-4.173-.668-7.4,6.233-9.071,9.015a71.579,71.579,0,0,0-7.123,16.082c.557.056,1.113.167,1.614.223.334-2.671-3.005-2.838-4.341-1.113a15.7,15.7,0,0,0-1.947,4.674c-.946,2.615-1.781,5.286-2.56,7.958a139.992,139.992,0,0,0-5.287,31.052c-.111,1.113,1.558,1.113,1.614.055Z" transform="translate(-1376.29 -772.119)" fill="#e8e8e8"/>
        </g>
      </g>
      <g id="Group_7" data-name="Group 7" transform="translate(677.029 46.887)">
        <g id="Group_6" data-name="Group 6">
          <path id="Path_33" data-name="Path 33" d="M1332.133,805.169a293.94,293.94,0,0,1,22.537,89.093c.111,1.057,1.781,1.057,1.669,0a298.147,298.147,0,0,0-22.76-89.983c-.445-.946-1.892-.056-1.447.89Z" transform="translate(-1332.049 -803.875)" fill="#e8e8e8"/>
        </g>
      </g>
      <g id="Group_9" data-name="Group 9" transform="translate(676.337 83.323)">
        <g id="Group_8" data-name="Group 8">
          <path id="Path_34" data-name="Path 34" d="M1331.248,870.88a75.775,75.775,0,0,1,15.971,10.74c.779.724,2-.445,1.168-1.169a79.555,79.555,0,0,0-16.36-11.018c-.89-.445-1.781,1-.779,1.447Z" transform="translate(-1330.805 -869.349)" fill="#e8e8e8"/>
        </g>
      </g>
      <g id="Group_11" data-name="Group 11" transform="translate(688.779 68.132)">
        <g id="Group_10" data-name="Group 10">
          <path id="Path_35" data-name="Path 35" d="M1356.634,842.468a39.339,39.339,0,0,0-3.45,9.683c-.223,1.057,1.391,1.5,1.614.445a39.288,39.288,0,0,1,3.283-9.293c.5-.946-.946-1.781-1.447-.835Z" transform="translate(-1353.162 -842.052)" fill="#e8e8e8"/>
        </g>
      </g>
      <g id="Group_13" data-name="Group 13" transform="translate(705.223 32.03)">
        <g id="Group_12" data-name="Group 12">
          <path id="Path_36" data-name="Path 36" d="M1406.134,777.968c-3.617,32.332-7.568,65.72-23.317,94.769-.5.946.946,1.781,1.447.835,15.915-29.326,19.866-62.938,23.539-95.6.111-1.057-1.558-1.057-1.669,0Z" transform="translate(-1382.713 -777.175)" fill="#e8e8e8"/>
        </g>
      </g>
      <g id="Group_15" data-name="Group 15" transform="translate(707.763 63.199)">
        <g id="Group_14" data-name="Group 14">
          <path id="Path_37" data-name="Path 37" d="M1387.346,834.474a161.819,161.819,0,0,1,9.905,32.443c.222,1.057,1.837.612,1.614-.445a168.436,168.436,0,0,0-10.073-32.833c-.445-1-1.836-.167-1.447.835Z" transform="translate(-1387.278 -833.188)" fill="#e8e8e8"/>
        </g>
      </g>
      <g id="Group_17" data-name="Group 17" transform="translate(723.213 55.629)">
        <g id="Group_16" data-name="Group 16">
          <path id="Path_38" data-name="Path 38" d="M1416.41,836.844c4.174-5.286,8.347-10.573,12.521-15.8.668-.835-.5-2-1.168-1.169-4.174,5.287-8.348,10.573-12.521,15.8-.668.779.5,2,1.168,1.168Z" transform="translate(-1415.042 -819.584)" fill="#e8e8e8"/>
        </g>
      </g>
      <g id="Group_19" data-name="Group 19" transform="translate(0 35.827)">
        <g id="Group_18" data-name="Group 18">
          <path id="Path_39" data-name="Path 39" d="M148.464,879.6a98.9,98.9,0,0,1-10.239-12.354,44.364,44.364,0,0,1-3.673-6.789c-.556-1.336-3.172-8.458.445-7.012.89.334,1.28-.835.835-1.391-3.673-4.674-6.121-10.128-8.236-15.637-2-5.231-3.951-10.518-5.787-15.8a82.515,82.515,0,0,1-4.4-17.807c-.5-4.786-1-11.352,2.449-15.3,5.064-5.732,10.184,3.728,12.576,7.29,3.228,4.786,6.4,9.683,9.46,14.58a180.889,180.889,0,0,1,15.637,31.33,100.838,100.838,0,0,1,6.566,39.287c-.056,1.057,1.614,1.057,1.669,0,1.224-27.156-10.406-52.476-24.6-74.958-3.506-5.509-7.012-11.074-10.851-16.361-2.17-2.949-5.62-6.01-9.516-4.062-3.562,1.725-4.9,6.344-5.231,9.961-.612,6.566.668,13.244,2.448,19.532,2,7.123,4.73,14.023,7.29,20.924,2.393,6.455,5.064,12.743,9.349,18.2.278-.445.557-.946.835-1.391a3.887,3.887,0,0,0-3.951.5.81.81,0,0,0-.39.723c1.224,11.241,8.848,19.866,16.194,27.768.668.779,1.836-.39,1.113-1.224Z" transform="translate(-115.421 -783.999)" fill="#e8e8e8"/>
        </g>
      </g>
      <g id="Group_21" data-name="Group 21" transform="translate(35.457)">
        <g id="Group_20" data-name="Group 20">
          <path id="Path_40" data-name="Path 40" d="M181.287,798.127a96.944,96.944,0,0,1,6.01-45.854,12.96,12.96,0,0,0-1.391.389,11.87,11.87,0,0,1,3.561,5.565.84.84,0,0,0,1.614,0,148.041,148.041,0,0,1,16.527-37.284,13.991,13.991,0,0,1-1.5-.223,119.486,119.486,0,0,1,7.958,34.669c.779,10.685,1.057,22.983-5.454,32.053a.817.817,0,0,0,.5,1.224c5.008,1.168,3.506,9.07,3.061,12.632a170.457,170.457,0,0,1-2.949,17.585A181.761,181.761,0,0,1,198.7,851.549c-.445,1,1,1.836,1.447.835a183.106,183.106,0,0,0,11.742-38.119c1.113-6.01,2.393-12.354,2.5-18.475.056-3.506-.835-7.9-4.786-8.792.167.39.334.835.5,1.224,6.511-9.07,6.4-21.2,5.732-31.886a119.813,119.813,0,0,0-8.069-36.115.84.84,0,0,0-1.5-.223,150.223,150.223,0,0,0-16.694,37.674h1.614a13.742,13.742,0,0,0-4.007-6.288.841.841,0,0,0-1.391.389,98.1,98.1,0,0,0-6.066,46.3c0,1.113,1.669,1.113,1.558.056Z" transform="translate(-179.138 -719.618)" fill="#e8e8e8"/>
        </g>
      </g>
      <g id="Group_23" data-name="Group 23" transform="translate(4.948 37.786)">
        <g id="Group_22" data-name="Group 22">
          <path id="Path_41" data-name="Path 41" d="M124.417,788.788c7.735,15.3,15.637,30.551,23.038,46.021,7.234,15.248,13.634,31,17.084,47.579.223,1.057,1.836.612,1.614-.445-3.45-16.416-9.683-31.942-16.861-47.078-7.457-15.8-15.581-31.33-23.484-46.967-.445-.89-1.892-.056-1.391.89Z" transform="translate(-124.313 -787.519)" fill="#e8e8e8"/>
        </g>
      </g>
      <g id="Group_25" data-name="Group 25" transform="translate(44.835 2.606)">
        <g id="Group_24" data-name="Group 24">
          <path id="Path_42" data-name="Path 42" d="M213.914,725.135c-1.169,16.527-6.288,32.331-10.072,48.358A343.423,343.423,0,0,0,196,822.24c-.111,1.057,1.558,1.057,1.669,0a341.907,341.907,0,0,1,8.292-50.361c3.784-15.47,8.458-30.773,9.627-46.744.056-1.113-1.614-1.113-1.669,0Z" transform="translate(-195.99 -724.3)" fill="#e8e8e8"/>
        </g>
      </g>
      <g id="Group_27" data-name="Group 27" transform="translate(3.557 69.267)">
        <g id="Group_26" data-name="Group 26">
          <path id="Path_43" data-name="Path 43" d="M122.418,845.766a71.737,71.737,0,0,1,22.927,12.855c.835.668,2-.5,1.169-1.169a75.784,75.784,0,0,0-23.65-13.3c-1.057-.389-1.5,1.224-.445,1.614Z" transform="translate(-121.814 -844.092)" fill="#e8e8e8"/>
        </g>
      </g>
      <g id="Group_29" data-name="Group 29" transform="translate(41.712 32.941)">
        <g id="Group_28" data-name="Group 28">
          <path id="Path_44" data-name="Path 44" d="M190.39,779.863a175.126,175.126,0,0,0,8.292,29.549c.39,1,2,.556,1.614-.445A182.064,182.064,0,0,1,192,779.418c-.223-1.057-1.781-.612-1.614.445Z" transform="translate(-190.378 -778.814)" fill="#e8e8e8"/>
        </g>
      </g>
      <g id="Group_31" data-name="Group 31" transform="translate(46.139 81.856)">
        <g id="Group_30" data-name="Group 30">
          <path id="Path_45" data-name="Path 45" d="M199.929,889.076c6.01-7.9,12.187-15.859,20.979-20.812.946-.5.111-1.948-.835-1.447-9.015,5.12-15.415,13.3-21.591,21.424-.612.835.835,1.669,1.447.835Z" transform="translate(-198.334 -866.714)" fill="#e8e8e8"/>
        </g>
      </g>
      <g id="Group_33" data-name="Group 33" transform="translate(624.846 138.498)">
        <g id="Group_32" data-name="Group 32">
          <path id="Path_46" data-name="Path 46" d="M1239.9,971.839h140.456a1.67,1.67,0,0,0,0-3.339H1239.9a1.67,1.67,0,0,0,0,3.339Z" transform="translate(-1238.275 -968.5)"/>
        </g>
      </g>
      <g id="Group_35" data-name="Group 35" transform="translate(6.318 130.707)">
        <g id="Group_34" data-name="Group 34">
          <path id="Path_47" data-name="Path 47" d="M238.586,954.5H128.4a1.67,1.67,0,0,0,0,3.339H238.586a1.672,1.672,0,0,0,0-3.339Z" transform="translate(-126.775 -954.5)"/>
        </g>
      </g>
    </g>
    <g id="banner" transform="translate(189.38 231.697)">
      <path id="Path_49" data-name="Path 49" d="M794.712,645.943,308.9,636.26a43.34,43.34,0,0,1-40.456-56.483l100-314.634a43.367,43.367,0,0,1,41.013-30.217q224.79-1.586,449.581-3.228A43.322,43.322,0,0,1,901.89,283.34L838.062,610.885A43.168,43.168,0,0,1,794.712,645.943Z" transform="translate(-263.259 -231.697)" fill="#ec615b" stroke="#000" stroke-miterlimit="10" stroke-width="6"/>
      <path id="Path_50" data-name="Path 50" d="M789.112,659.538q-242.9-4.591-485.808-9.126c-28.993-.557-49.248-27.267-40.456-53.311l100-296.994c5.676-16.861,22.259-28.38,41.013-28.547q224.79-1.5,449.581-3.061c27.379-.167,48.136,23.372,42.849,48.748L832.462,626.483C828.511,645.96,810.2,659.928,789.112,659.538Z" transform="translate(-260.775 -248.019)" fill="#ffe2fe" stroke="#000" stroke-miterlimit="10" stroke-width="6"/>
      <g id="Group_39" data-name="Group 39" transform="translate(541.199 386.315)">
        <g id="Group_38" data-name="Group 38" transform="translate(0)">
          <path id="Path_51" data-name="Path 51" d="M1261.965,926.349a43.791,43.791,0,0,1-28.046,24.04.837.837,0,0,0,.445,1.614,45.513,45.513,0,0,0,29.048-24.819c.39-.946-1-1.836-1.447-.835Z" transform="translate(-1233.314 -925.908)"/>
        </g>
      </g>
      <g id="Group_41" data-name="Group 41" transform="translate(146.868 8.674)">
        <g id="Group_40" data-name="Group 40">
          <path id="Path_52" data-name="Path 52" d="M528.316,254.138c-1.669-.167-2.282-1.948-1.836-3.395.612-1.836,2.393-2.226,4.062-1.391a2.708,2.708,0,0,1,1.28,3.339,2.677,2.677,0,0,1-3.506,1.336c-1-.39-1.447,1.224-.445,1.614a4.365,4.365,0,0,0,5.62-2.56,4.475,4.475,0,0,0-3.116-5.565,4.162,4.162,0,0,0-5.565,3.172,4.1,4.1,0,0,0,3.506,5.12c1.057.111,1.057-1.558,0-1.669Z" transform="translate(-524.698 -247.285)"/>
        </g>
      </g>
      <path id="Path_53" data-name="Path 53" d="M527.549,253.977a3.117,3.117,0,0,0,4.563,1.224,2.948,2.948,0,0,0-2.282-5.231A3.084,3.084,0,0,0,527.549,253.977Z" transform="translate(-379.01 -239.785)" fill="#fff"/>
      <g id="Group_43" data-name="Group 43" transform="translate(165.677 8.173)">
        <g id="Group_42" data-name="Group 42">
          <path id="Path_54" data-name="Path 54" d="M562.116,253.238c-1.669-.167-2.282-1.948-1.836-3.395.612-1.836,2.393-2.226,4.062-1.391a2.708,2.708,0,0,1,1.28,3.339,2.677,2.677,0,0,1-3.506,1.336c-1-.39-1.447,1.224-.445,1.614a4.366,4.366,0,0,0,5.621-2.56,4.475,4.475,0,0,0-3.116-5.565,4.162,4.162,0,0,0-5.565,3.172,4.1,4.1,0,0,0,3.506,5.12c1.057.111,1.057-1.558,0-1.669Z" transform="translate(-558.497 -246.385)"/>
        </g>
      </g>
      <path id="Path_55" data-name="Path 55" d="M561.348,253.077a3.117,3.117,0,0,0,4.563,1.224,2.948,2.948,0,0,0-2.281-5.231A3.084,3.084,0,0,0,561.348,253.077Z" transform="translate(-394.001 -239.386)" fill="none" stroke="#000" stroke-miterlimit="10" stroke-width="1"/>
      <g id="Group_45" data-name="Group 45" transform="translate(149.289 9.491)">
        <g id="Group_44" data-name="Group 44">
          <path id="Path_56" data-name="Path 56" d="M529.133,250a36.5,36.5,0,0,0,2.727,5.008c.557.89,2,.056,1.447-.835a54.3,54.3,0,0,1-2.727-5.008c-.445-.946-1.892-.111-1.447.835Z" transform="translate(-529.049 -248.752)"/>
        </g>
      </g>
      <g id="Group_47" data-name="Group 47" transform="translate(148.114 10.36)">
        <g id="Group_46" data-name="Group 46">
          <path id="Path_57" data-name="Path 57" d="M528.364,255.7c.779-.668,1.5-1.391,2.282-2.059a11.222,11.222,0,0,1,2.17-1.781c.946-.5.111-1.948-.835-1.447a11.484,11.484,0,0,0-2.226,1.836c-.835.779-1.725,1.558-2.56,2.337-.779.668.39,1.836,1.169,1.113Z" transform="translate(-526.938 -250.313)"/>
        </g>
      </g>
      <path id="Path_58" data-name="Path 58" d="M888.452,318.452c-4.953,15.915-9.961,31.886-14.914,47.8a15.5,15.5,0,0,0,14.58,20.089q103.589,1.252,207.122,2.448a15.487,15.487,0,0,0,15.415-12.8c2.949-16.917,5.954-33.834,8.9-50.751a15.468,15.468,0,0,0-15.248-18.141l-201.112.5A15.463,15.463,0,0,0,888.452,318.452Z" transform="translate(-532.235 -265.14)" fill="#fff" stroke="#060606" stroke-miterlimit="10" stroke-width="3"/>
      <path id="Path_59" data-name="Path 59" d="M400.586,710.5l-28.881,82.971c-5.954,17.14,8.18,34.613,28.213,34.836q200.5,2.087,401.056,4.229c14.691.167,27.323-9.237,29.827-22.2q8.681-43.99,17.307-88.035a24.4,24.4,0,0,0-1.624-14.5c-4.1-9.672-14.913-16.993-27.925-16.993l-389.481.835C416,691.69,404.482,699.314,400.586,710.5Z" transform="translate(-309.366 -435.318)" fill="#fff" stroke="#060606" stroke-miterlimit="10" stroke-width="3"/>
      <g id="Group_49" data-name="Group 49" transform="translate(350.217 148.033)">
        <g id="Group_48" data-name="Group 48">
          <path id="Path_60" data-name="Path 60" d="M917.042,498.318l-26.878,80.467c-.334,1,1.28,1.447,1.614.445l26.878-80.467a.837.837,0,0,0-1.614-.445Z" transform="translate(-890.119 -497.714)" fill="#666262"/>
        </g>
      </g>
      <g id="Group_51" data-name="Group 51" transform="translate(377.384 144.019)">
        <g id="Group_50" data-name="Group 50">
          <path id="Path_61" data-name="Path 61" d="M939.751,495.286c23.261-1.224,46.633-3.116,69.95-3.116,23.205,0,46.355,2,69.449,4.007,1.057.111,1.057-1.558,0-1.67-23.094-2-46.243-3.951-69.449-4.007-23.317,0-46.689,1.892-69.95,3.116-1.057.056-1.113,1.725,0,1.669Z" transform="translate(-938.937 -490.5)" fill="#666262"/>
        </g>
      </g>
      <g id="Group_53" data-name="Group 53" transform="translate(498.544 149.075)">
        <g id="Group_52" data-name="Group 52">
          <path id="Path_62" data-name="Path 62" d="M1175.437,500.15q-9.349,39.9-18.753,79.744c-.223,1.057,1.391,1.5,1.614.445q9.348-39.9,18.753-79.744c.222-1-1.391-1.447-1.614-.445Z" transform="translate(-1156.662 -499.585)" fill="#666262"/>
        </g>
      </g>
      <g id="Group_55" data-name="Group 55" transform="translate(350.45 228.306)">
        <g id="Group_54" data-name="Group 54">
          <path id="Path_63" data-name="Path 63" d="M891.351,645.657q57.262-3.089,114.635-1.391c10.907.334,21.759.779,32.666,1.391,1.057.056,1.057-1.614,0-1.67q-57.262-3.172-114.635-1.391c-10.907.334-21.758.779-32.665,1.391-1.057.056-1.113,1.725,0,1.67Z" transform="translate(-890.537 -641.964)" fill="#666262"/>
        </g>
      </g>
      <g id="Group_57" data-name="Group 57" transform="translate(424.101 211.63)">
        <g id="Group_56" data-name="Group 56">
          <path id="Path_64" data-name="Path 64" d="M1024.174,629.528c23.818-12.409,51.03-14.246,77.351-15.86,1.057-.056,1.057-1.725,0-1.669-26.6,1.669-54.09,3.562-78.185,16.082-1,.5-.167,1.948.834,1.447Z" transform="translate(-1022.887 -611.998)" fill="#666262"/>
        </g>
      </g>
      <g id="Group_59" data-name="Group 59" transform="translate(463.374 175.133)">
        <g id="Group_58" data-name="Group 58" transform="translate(0)">
          <path id="Path_65" data-name="Path 65" d="M1093.483,547.463a196.756,196.756,0,0,1,4.007,38.731.836.836,0,0,0,1.669,0,205.719,205.719,0,0,0-4.062-39.176c-.223-1.057-1.836-.612-1.614.445Z" transform="translate(-1093.462 -546.414)" fill="#666262"/>
        </g>
      </g>
      <g id="Group_61" data-name="Group 61" transform="translate(452.453 175.526)">
        <g id="Group_60" data-name="Group 60">
          <path id="Path_66" data-name="Path 66" d="M1084.167,547.5c-3.394,4.953-6.733,9.961-10.128,14.914.5.167,1.057.278,1.558.445a21.716,21.716,0,0,1,3.84-13.8c.612-.89-.834-1.725-1.447-.835a23.287,23.287,0,0,0-4.118,14.635.853.853,0,0,0,1.558.445c3.394-4.953,6.733-9.961,10.128-14.914.668-.946-.78-1.781-1.392-.89Z" transform="translate(-1073.838 -547.119)" fill="#666262"/>
        </g>
      </g>
      <g id="Group_63" data-name="Group 63" transform="translate(443.611 165.661)">
        <g id="Group_62" data-name="Group 62" transform="translate(0)">
          <path id="Path_67" data-name="Path 67" d="M1071.5,539.19a12.459,12.459,0,0,0-5.843-1.113c-1.224.056-6.177,1.558-5.454-.278.278-.723,1.836-1.669,2.448-2.17a27.185,27.185,0,0,1,3.673-2.56,14.19,14.19,0,0,1,9.238-1.892c1.057.167,1.5-1.447.445-1.614-6.455-1-13.189,2.5-17.362,7.346-1.113,1.28-.946,3.06.89,3.617a6.365,6.365,0,0,0,3.061-.334c2.727-.612,5.4-.835,8.069.334.946.557,1.781-.891.835-1.336Z" transform="translate(-1057.948 -529.392)" fill="#666262"/>
        </g>
      </g>
      <g id="Group_65" data-name="Group 65" transform="translate(461.013 153.823)">
        <g id="Group_64" data-name="Group 64">
          <path id="Path_68" data-name="Path 68" d="M1090.933,520.017a17.94,17.94,0,0,1,11.464-10.239c-.278-.445-.556-.946-.835-1.391a16.422,16.422,0,0,0-3.395,8.18c-.111,1.057,1.558,1.057,1.67,0a14.525,14.525,0,0,1,2.894-7.012c.445-.612.056-1.669-.835-1.391a19.674,19.674,0,0,0-12.632,11.408c-.334,1,1.28,1.447,1.669.445Z" transform="translate(-1089.219 -508.118)" fill="#666262"/>
        </g>
      </g>
      <g id="Group_67" data-name="Group 67" transform="translate(469.935 159.655)">
        <g id="Group_66" data-name="Group 66">
          <path id="Path_69" data-name="Path 69" d="M1106.5,522.216a13.988,13.988,0,0,1,13.856-.167V520.6a69.525,69.525,0,0,0-10.017,5.9c-.89.612-.056,2.059.835,1.447a69.507,69.507,0,0,1,10.016-5.9.858.858,0,0,0,0-1.447,15.482,15.482,0,0,0-15.526.167.835.835,0,0,0,.835,1.447Z" transform="translate(-1105.252 -518.599)" fill="#666262"/>
        </g>
      </g>
      <g id="Group_69" data-name="Group 69" transform="translate(470.504 167.53)">
        <g id="Group_68" data-name="Group 68">
          <path id="Path_70" data-name="Path 70" d="M1110.184,534.336c3.617,2,7.123,5.287,6.121,9.85a13.989,13.989,0,0,0,1.5-.223,11.99,11.99,0,0,0-10.74-5.676c-1.057.056-1.057,1.725,0,1.669a10.208,10.208,0,0,1,9.293,4.841c.334.556,1.391.556,1.5-.223,1.113-5.287-2.56-9.349-6.9-11.742-.89-.445-1.725,1-.779,1.5Z" transform="translate(-1106.275 -532.749)" fill="#666262"/>
        </g>
      </g>
      <g id="Group_71" data-name="Group 71" transform="translate(469.829 173.408)">
        <g id="Group_70" data-name="Group 70">
          <path id="Path_71" data-name="Path 71" d="M1105.083,544.363a167.208,167.208,0,0,1,2.782,40.456c-.056,1.057,1.614,1.057,1.67,0a168.061,168.061,0,0,0-2.838-40.9c-.223-1.057-1.836-.612-1.614.445Z" transform="translate(-1105.062 -543.314)" fill="#666262"/>
        </g>
      </g>
      <g id="Group_73" data-name="Group 73" transform="translate(467.221 198.303)">
        <g id="Group_72" data-name="Group 72" transform="translate(0)">
          <path id="Path_72" data-name="Path 72" d="M1101.168,590.415a9.92,9.92,0,0,0,5.231-.835c1-.445.111-1.892-.835-1.447a7.487,7.487,0,0,1-4.4.612c-1.057-.167-1.057,1.5,0,1.669Z" transform="translate(-1100.375 -588.049)" fill="#666262"/>
        </g>
      </g>
      <g id="Group_75" data-name="Group 75" transform="translate(357.712 207.563)">
        <g id="Group_74" data-name="Group 74">
          <path id="Path_73" data-name="Path 73" d="M904.373,606.365c9.126.556,18.364.723,27.434,1.781,4.452.5,8.737,1.836,13.133,2.5,4.285.612,8.458,0,12.743-.779,18.753-3.283,37.618-1.5,56.371.5,1.057.111,1.057-1.558,0-1.669-18.141-1.948-36.561-3.84-54.7-.835-5.12.835-9.961,1.836-15.136.946-4.173-.723-8.18-1.836-12.354-2.337-9.071-1.057-18.308-1.224-27.435-1.781-1.113-.112-1.113,1.558-.056,1.669Z" transform="translate(-903.587 -604.69)" fill="#666262"/>
        </g>
      </g>
      <g id="Group_77" data-name="Group 77" transform="translate(466.045 187.114)">
        <g id="Group_76" data-name="Group 76" transform="translate(0)">
          <path id="Path_74" data-name="Path 74" d="M1098.283,569.978c.223.946,1.168,1.169,2.059,1a41.782,41.782,0,0,0,5.175-1.391.837.837,0,0,0-.445-1.614c-1,.278-2,.556-3,.779a13,13,0,0,0-1.391.39l-.668.167c-.39-.056-.39,0-.111.167-.222-1-1.836-.556-1.614.5Z" transform="translate(-1098.262 -567.942)" fill="#666262"/>
        </g>
      </g>
      <g id="Group_79" data-name="Group 79" transform="translate(391.964 158.191)">
        <g id="Group_78" data-name="Group 78" transform="translate(0)">
          <path id="Path_75" data-name="Path 75" d="M968.733,525.669c-5.509-1.781,1.67-11.241,5.509-7.012a4.521,4.521,0,0,1,.056,5.676,4.6,4.6,0,0,1-5.9.946.835.835,0,0,0-.835,1.447,6.316,6.316,0,0,0,8.458-1.836c1.614-2.615,1.169-6.678-1.669-8.292-6.177-3.45-13.578,8.292-6.01,10.74,1,.278,1.447-1.336.389-1.669Z" transform="translate(-965.137 -515.969)" fill="#666262"/>
        </g>
      </g>
      <g id="Group_81" data-name="Group 81" transform="translate(523.425 152.755)">
        <g id="Group_80" data-name="Group 80" transform="translate(0)">
          <path id="Path_76" data-name="Path 76" d="M1202.168,507.925a401.833,401.833,0,0,1,53.478,6.4c1.057.223,1.5-1.391.445-1.614a398.44,398.44,0,0,0-53.923-6.511c-1.057,0-1.057,1.669,0,1.725Z" transform="translate(-1201.375 -506.2)" fill="#666262"/>
        </g>
      </g>
      <g id="Group_83" data-name="Group 83" transform="translate(523.147 157.647)">
        <g id="Group_82" data-name="Group 82">
          <path id="Path_77" data-name="Path 77" d="M1201.668,516.665c17.14,1.836,34.335,3.784,51.419,5.843,1.058.111,1.058-1.558,0-1.669q-25.709-3.089-51.419-5.843c-1.057-.111-1.057,1.558,0,1.669Z" transform="translate(-1200.875 -514.99)" fill="#666262"/>
        </g>
      </g>
      <g id="Group_85" data-name="Group 85" transform="translate(522.779 162.704)">
        <g id="Group_84" data-name="Group 84" transform="translate(0)">
          <path id="Path_78" data-name="Path 78" d="M1200.818,525.7a235.488,235.488,0,0,0,31.219,3.172c1.057.056,1.057-1.614,0-1.669a238.264,238.264,0,0,1-30.773-3.116c-1.058-.167-1.5,1.447-.445,1.614Z" transform="translate(-1200.214 -524.078)" fill="#666262"/>
        </g>
      </g>
      <g id="Group_87" data-name="Group 87" transform="translate(516.547 192.699)">
        <g id="Group_86" data-name="Group 86">
          <path id="Path_79" data-name="Path 79" d="M1189.618,579.6q21.118,3.005,42.348,5.008c1.057.111,1.057-1.558,0-1.669q-21.035-2-41.9-4.953c-1.057-.167-1.5,1.447-.445,1.614Z" transform="translate(-1189.014 -577.978)" fill="#666262"/>
        </g>
      </g>
      <g id="Group_89" data-name="Group 89" transform="translate(515.489 197.475)">
        <g id="Group_88" data-name="Group 88">
          <path id="Path_80" data-name="Path 80" d="M1187.718,588.2q16.778,2.922,33.612,4.9c1.057.111,1.057-1.558,0-1.67-11.13-1.28-22.148-2.894-33.166-4.841-1.057-.223-1.5,1.391-.445,1.614Z" transform="translate(-1187.114 -586.562)" fill="#666262"/>
        </g>
      </g>
      <g id="Group_91" data-name="Group 91" transform="translate(514.321 204.543)">
        <g id="Group_90" data-name="Group 90">
          <path id="Path_81" data-name="Path 81" d="M1185.618,600.9a320.416,320.416,0,0,0,42.4,5.565c1.058.056,1.058-1.614,0-1.67a332.977,332.977,0,0,1-41.958-5.509c-1.057-.223-1.5,1.391-.445,1.614Z" transform="translate(-1185.014 -599.262)" fill="#666262"/>
        </g>
      </g>
      <g id="Group_93" data-name="Group 93" transform="translate(114.482 275.176)">
        <g id="Group_92" data-name="Group 92">
          <path id="Path_82" data-name="Path 82" d="M467.335,728.812c25.6,1.28,51.307-.056,76.905-.445s51.141-.5,76.739-.445c51.363.111,102.671,1.057,154.034,2.226,28.937.668,57.818,1.447,86.755,2.17,1.057.056,1.057-1.614,0-1.669-51.307-1.335-102.671-2.727-154.034-3.561s-102.671-1.224-154.034-.557c-28.77.334-57.651,2.059-86.366.557a.863.863,0,0,0,0,1.725Z" transform="translate(-466.5 -726.191)" fill="#605d5d"/>
        </g>
      </g>
      <path id="Path_83" data-name="Path 83" d="M462.076,367.377c3.339.5,5.676-1.781,12.3-6.678,9.961-7.4,12.076-7.624,13.578-7.513.723.056,2.059.278,8.347,5.008,9.182,6.9,9.738,9.015,12.743,9.182,5.454.223,6.233-6.678,12.743-7.29,5.9-.556,7.735,4.841,15.025,4.563,5.621-.167,8.9-3.617,9.4-2.894.612.946-4.674,8.236-12.3,9.4-5.62.835-6.845-2.449-12.3-1.669C514.052,370.6,512.6,377.5,507.04,377c-3.283-.334-3.728-2.782-9.4-6.678-3.005-2.059-8.236-5.621-13.968-6.066-10.518-.779-15.971,9.4-22.315,6.455-3.061-1.391-4.786-5.175-4.4-5.621C457.235,364.65,459.183,366.932,462.076,367.377Z" transform="translate(-347.762 -285.573)" fill="#5222d0"/>
      <g id="Group_95" data-name="Group 95" transform="translate(362.516 52.652)">
        <g id="Group_94" data-name="Group 94">
          <path id="Path_84" data-name="Path 84" d="M924.729,326.918q-5.092,23.122-12.465,45.687c-.334,1,1.28,1.447,1.614.445q7.345-22.537,12.465-45.687c.223-1.057-1.391-1.5-1.614-.445Z" transform="translate(-912.219 -326.314)" fill="#605d5d"/>
        </g>
      </g>
      <g id="Group_97" data-name="Group 97" transform="translate(362.769 97.497)">
        <g id="Group_96" data-name="Group 96">
          <path id="Path_85" data-name="Path 85" d="M913.468,409.627c5.732.668,11.463.39,17.251.278,6.01-.167,12.02-.278,18.085-.445,12.02-.278,24.1-.612,36.116-.89a.836.836,0,0,0,0-1.669c-12.02.278-24.1.612-36.116.89-5.843.167-11.686.278-17.529.445-5.954.167-11.853.445-17.807-.223-1.057-.167-1.057,1.5,0,1.614Z" transform="translate(-912.675 -406.9)" fill="#605d5d"/>
        </g>
      </g>
      <g id="Group_99" data-name="Group 99" transform="translate(378.854 68.178)">
        <g id="Group_98" data-name="Group 98">
          <path id="Path_86" data-name="Path 86" d="M946.988,354.818q-3.172,14.858-5.4,29.883c-.167,1.057,1.447,1.5,1.614.445q2.254-15.025,5.4-29.883c.223-1.057-1.391-1.5-1.614-.445Z" transform="translate(-941.578 -354.214)" fill="#605d5d"/>
        </g>
      </g>
      <g id="Group_101" data-name="Group 101" transform="translate(384.715 68.054)">
        <g id="Group_100" data-name="Group 100">
          <path id="Path_87" data-name="Path 87" d="M952.94,355.61a65.612,65.612,0,0,1,8.737,1c-.167-.334-.39-.668-.557-1q-3.923,14.107-6.678,28.492c-.222,1.057,1.391,1.5,1.614.445q2.754-14.357,6.678-28.492a.8.8,0,0,0-.557-1A72.444,72.444,0,0,0,953,354a.809.809,0,1,0-.056,1.614Z" transform="translate(-952.112 -353.99)" fill="#605d5d"/>
        </g>
      </g>
      <g id="Group_103" data-name="Group 103" transform="translate(396.541 77.45)">
        <g id="Group_102" data-name="Group 102">
          <path id="Path_88" data-name="Path 88" d="M976.722,371.668c-.835,6.789-1.948,13.467-3.339,20.145-.223,1.057,1.391,1.5,1.614.445,1.447-6.789,2.56-13.689,3.395-20.59.111-1.057-1.558-1.057-1.67,0Z" transform="translate(-973.362 -370.875)" fill="#605d5d"/>
        </g>
      </g>
      <g id="Group_105" data-name="Group 105" transform="translate(399.907 76.654)">
        <g id="Group_104" data-name="Group 104" transform="translate(0)">
          <path id="Path_89" data-name="Path 89" d="M980.24,371.145a88.411,88.411,0,0,1,9.4.167,12.867,12.867,0,0,1-.779-1.057c-1.224,6.622-2.282,13.244-3.172,19.922-.167,1.057,1.5,1.057,1.669,0,.89-6.511,1.892-12.966,3.116-19.477a.845.845,0,0,0-.779-1.057c-3.116-.223-6.288-.223-9.4-.167a.835.835,0,1,0-.056,1.669Z" transform="translate(-979.412 -369.444)" fill="#605d5d"/>
        </g>
      </g>
      <g id="Group_107" data-name="Group 107" transform="translate(413.458 62.502)">
        <g id="Group_106" data-name="Group 106">
          <path id="Path_90" data-name="Path 90" d="M1010.517,344.618c-1.948,11.63-4.229,23.261-6.733,34.78-.223,1.057,1.391,1.5,1.614.445,2.5-11.519,4.786-23.15,6.733-34.78.223-1.057-1.391-1.5-1.614-.445Z" transform="translate(-1003.762 -344.014)" fill="#605d5d"/>
        </g>
      </g>
      <g id="Group_109" data-name="Group 109" transform="translate(421.548 61.437)">
        <g id="Group_108" data-name="Group 108" transform="translate(0)">
          <path id="Path_91" data-name="Path 91" d="M1018.3,342.935v.278a.835.835,0,1,0,1.669,0v-.278a.856.856,0,0,0-.835-.835.9.9,0,0,0-.835.835Z" transform="translate(-1018.3 -342.1)" fill="#e8e8e8"/>
        </g>
      </g>
      <g id="Group_111" data-name="Group 111" transform="translate(421.336 62.027)">
        <g id="Group_110" data-name="Group 110" transform="translate(0)">
          <path id="Path_92" data-name="Path 92" d="M1018.521,344.8a31.965,31.965,0,0,0,7.624.779,12.9,12.9,0,0,1-.779-1.057q-3.256,17.446-6.065,35c-.167,1.057,1.447,1.5,1.614.445q2.838-17.529,6.065-35a.845.845,0,0,0-.779-1.057,34.532,34.532,0,0,1-7.179-.723c-1.113-.223-1.558,1.336-.5,1.614Z" transform="translate(-1017.92 -343.161)" fill="#605d5d"/>
        </g>
      </g>
      <g id="Group_113" data-name="Group 113" transform="translate(446.575 58.136)">
        <g id="Group_112" data-name="Group 112" transform="translate(0)">
          <path id="Path_93" data-name="Path 93" d="M1064.068,337.911c18.92-.223,37.785-.111,56.705.39a.836.836,0,0,0,0-1.67c-18.92-.445-37.785-.556-56.705-.39a.836.836,0,0,0,0,1.669Z" transform="translate(-1063.275 -336.168)" fill="#605d5d"/>
        </g>
      </g>
      <g id="Group_115" data-name="Group 115" transform="translate(447.855 64.492)">
        <g id="Group_114" data-name="Group 114" transform="translate(0)">
          <path id="Path_94" data-name="Path 94" d="M1066.368,349.766a219.7,219.7,0,0,0,35.281-.5c1.057-.111,1.057-1.781,0-1.669a219.709,219.709,0,0,1-35.281.5c-1.057-.056-1.057,1.614,0,1.669Z" transform="translate(-1065.575 -347.59)" fill="#605d5d"/>
        </g>
      </g>
      <g id="Group_117" data-name="Group 117" transform="translate(445.295 73.265)">
        <g id="Group_116" data-name="Group 116">
          <path id="Path_95" data-name="Path 95" d="M1061.768,365.161q24.207-.417,48.414.835c1.057.056,1.057-1.614,0-1.669q-24.207-1.336-48.414-.835a.836.836,0,0,0,0,1.669Z" transform="translate(-1060.975 -363.355)" fill="#605d5d"/>
        </g>
      </g>
      <g id="Group_119" data-name="Group 119" transform="translate(519.673 57.272)">
        <g id="Group_118" data-name="Group 118" transform="translate(0)">
          <path id="Path_96" data-name="Path 96" d="M1207.636,378.235c-5.677-.723-8.4-6.4-10.017-11.241-1.5-4.563-2.059-9.349-.334-13.912,3.005-8.013,11.185-14.469,19.421-16.3,8.57-1.948,17.251,2.615,21.369,10.239,4.34,8.013,2.838,18.308-2.226,25.6-6.233,8.959-19.366,9.961-28.492,5.231-.946-.5-1.78.946-.835,1.447,8.737,4.507,20.813,4.285,28.214-2.782,7.234-6.9,9.571-19.2,5.787-28.325-3.617-8.625-12.744-14.635-22.2-13.411-9.349,1.224-18.753,8.347-22.315,17.084-2.393,5.954-1.391,12.187.946,17.974,2,4.9,5.175,9.349,10.74,10.072,1,.111,1-1.558-.056-1.669Z" transform="translate(-1194.631 -334.616)" fill="#605d5d"/>
        </g>
      </g>
      <g id="Group_121" data-name="Group 121" transform="translate(534.954 60.674)">
        <g id="Group_120" data-name="Group 120" transform="translate(0)">
          <path id="Path_97" data-name="Path 97" d="M1222.152,341.714c2.615,6.733,5.008,13.578,7.29,20.478.334,1,1.948.556,1.614-.445-2.282-6.9-4.674-13.689-7.29-20.479-.39-.946-2-.557-1.614.445Z" transform="translate(-1222.092 -340.729)" fill="#605d5d"/>
        </g>
      </g>
      <g id="Group_123" data-name="Group 123" transform="translate(542.814 67.331)">
        <g id="Group_122" data-name="Group 122">
          <path id="Path_98" data-name="Path 98" d="M1237.431,368.444c6.567-4.563,13.077-9.293,19.421-14.135.835-.668,0-2.115-.835-1.447q-9.6,7.262-19.421,14.135c-.89.612-.056,2.059.835,1.447Z" transform="translate(-1236.216 -352.691)" fill="#605d5d"/>
        </g>
      </g>
      <g id="Group_125" data-name="Group 125" transform="translate(542.958 77.821)">
        <g id="Group_124" data-name="Group 124" transform="translate(0)">
          <path id="Path_99" data-name="Path 99" d="M1237.268,376.861a92.2,92.2,0,0,0,21.981-3.673.838.838,0,0,0-.445-1.614,88.025,88.025,0,0,1-21.536,3.561c-1.057.111-1.057,1.781,0,1.725Z" transform="translate(-1236.475 -371.542)" fill="#605d5d"/>
        </g>
      </g>
      <g id="Group_127" data-name="Group 127" transform="translate(528.943 82.237)">
        <g id="Group_126" data-name="Group 126">
          <path id="Path_100" data-name="Path 100" d="M1224.763,379.824c-4.452,5.732-8.848,11.464-13.3,17.2-.668.835.779,1.67,1.447.835,4.452-5.732,8.848-11.464,13.3-17.2.668-.835-.779-1.669-1.447-.835Z" transform="translate(-1211.291 -379.479)" fill="#605d5d"/>
        </g>
      </g>
      <g id="Group_129" data-name="Group 129" transform="translate(113.869 269.004)">
        <g id="Group_128" data-name="Group 128">
          <path id="Path_101" data-name="Path 101" d="M467.959,721.054c-1.391-.389-.557-2.226.056-2.838.668-.668,2.337-.612,3.228-.612,1.614-.056,3.228,0,4.9-.056,3.339,0,6.678-.056,10.017-.056,6.678-.056,13.356-.056,20.033-.111,13.189-.055,26.322-.167,39.51-.223q39.816-.25,79.577-.334,79.3-.251,158.541.111c14.468.111,28.993.111,43.461.723,7.179.278,14.357.724,21.536,1.391,3.561.334,7.179.724,10.74,1.169,1.169.167,2.337.278,3.506.5.946.167,1.5,0,1.836.89.891,2.115-1.948,4.285-3.673,4.4-1.057.056-1.057,1.725,0,1.669a5.67,5.67,0,0,0,4.953-7.624c-.111-.278-.278-.556-.556-.556-26.544-3.951-53.422-3.951-80.189-4.118q-41.486-.25-82.916-.278-83.138,0-166.332.5c-15.582.111-31.163.167-46.744.278-3.728,0-7.4.056-11.13.056-3.116,0-6.789-.5-9.794.39-2.894.835-4.786,5.4-1,6.455,1,.167,1.447-1.447.445-1.725Z" transform="translate(-465.398 -715.1)" fill="#605d5d"/>
        </g>
      </g>
      <g id="Group_131" data-name="Group 131" transform="translate(91.828 284.148)">
        <g id="Group_130" data-name="Group 130">
          <path id="Path_102" data-name="Path 102" d="M446.275,742.918a494.261,494.261,0,0,1-20.423,59.1c-.39,1,1.224,1.447,1.614.445a494.225,494.225,0,0,0,20.423-59.1.837.837,0,0,0-1.614-.445Z" transform="translate(-425.792 -742.314)" fill="#605d5d"/>
        </g>
      </g>
      <g id="Group_133" data-name="Group 133" transform="translate(112.054 284.747)">
        <g id="Group_132" data-name="Group 132">
          <path id="Path_103" data-name="Path 103" d="M462.951,745.065c14.3,1.725,29.048.556,43.406.39a.836.836,0,0,0,0-1.669c-14.357.223-29.1,1.336-43.406-.39-1.113-.111-1.057,1.558,0,1.669Z" transform="translate(-462.137 -743.391)" fill="#605d5d"/>
        </g>
      </g>
      <g id="Group_135" data-name="Group 135" transform="translate(139.423 286.096)">
        <g id="Group_134" data-name="Group 134">
          <path id="Path_104" data-name="Path 104" d="M526.389,746.418q-7.1,26.21-15.025,52.2c-.334,1.057,1.28,1.447,1.614.445q7.93-25.96,15.025-52.2a.837.837,0,0,0-1.614-.445Z" transform="translate(-511.319 -745.814)" fill="#605d5d"/>
        </g>
      </g>
      <g id="Group_137" data-name="Group 137" transform="translate(91.875 342.16)">
        <g id="Group_136" data-name="Group 136">
          <path id="Path_105" data-name="Path 105" d="M426.668,849.087l23.484-.167c3.84,0,7.624-.056,11.464-.056a44.122,44.122,0,0,0,10.128-.668c1.057-.223.612-1.836-.445-1.614-3.506.835-7.179.612-10.8.612-3.84,0-7.624.056-11.463.056-7.457.056-14.914.111-22.371.111-1.057.056-1.057,1.725,0,1.725Z" transform="translate(-425.875 -846.562)" fill="#605d5d"/>
        </g>
      </g>
      <g id="Group_139" data-name="Group 139" transform="translate(162.436 284.651)">
        <g id="Group_138" data-name="Group 138">
          <path id="Path_106" data-name="Path 106" d="M553.468,745.656q56.427-1.586,112.91.223c1.057.055,1.057-1.614,0-1.67q-56.427-1.836-112.91-.223a.836.836,0,0,0,0,1.669Z" transform="translate(-552.675 -743.217)" fill="#605d5d"/>
        </g>
      </g>
      <g id="Group_141" data-name="Group 141" transform="translate(160.837 295.103)">
        <g id="Group_140" data-name="Group 140">
          <path id="Path_107" data-name="Path 107" d="M550.635,763.781c21.814-.056,43.628-.056,65.5-.111a.836.836,0,0,0,0-1.669c-21.814.056-43.628.056-65.5.111a.835.835,0,0,0,0,1.669Z" transform="translate(-549.8 -762)" fill="#605d5d"/>
        </g>
      </g>
      <g id="Group_143" data-name="Group 143" transform="translate(137.673 336.402)">
        <g id="Group_142" data-name="Group 142">
          <path id="Path_108" data-name="Path 108" d="M509.747,842.55a17.269,17.269,0,0,0,2.115-5.287c.223-1.057-1.391-1.5-1.614-.445a15.56,15.56,0,0,1-1.948,4.9c-.557.89.89,1.725,1.447.835Z" transform="translate(-508.175 -836.214)" fill="#605d5d"/>
        </g>
      </g>
      <g id="Group_145" data-name="Group 145" transform="translate(335.105 291.382)">
        <g id="Group_144" data-name="Group 144">
          <path id="Path_109" data-name="Path 109" d="M875.893,755.918q-6.678,31.886-12.91,63.773c-.223,1.057,1.391,1.5,1.614.445q6.261-31.887,12.911-63.773c.222-1.057-1.391-1.5-1.614-.445Z" transform="translate(-862.962 -755.314)" fill="#605d5d"/>
        </g>
      </g>
      <g id="Group_147" data-name="Group 147" transform="translate(334.667 355.48)">
        <g id="Group_146" data-name="Group 146">
          <path id="Path_110" data-name="Path 110" d="M862.968,872.168,931.526,874c22.593.612,45.186,1.558,67.779,1.558a.836.836,0,0,0,0-1.669c-22.593,0-45.186-1-67.779-1.558L862.968,870.5c-1.057-.056-1.057,1.614,0,1.669Z" transform="translate(-862.175 -870.498)" fill="#605d5d"/>
        </g>
      </g>
      <g id="Group_149" data-name="Group 149" transform="translate(335.733 333.159)">
        <g id="Group_148" data-name="Group 148">
          <path id="Path_111" data-name="Path 111" d="M865.487,854.212c6.9-7.457,13.8-14.969,20.7-22.426H885.02a30.636,30.636,0,0,0,8.069,7.067.835.835,0,0,0,.835-1.447,28.226,28.226,0,0,1-7.735-6.789.858.858,0,0,0-1.168,0c-6.9,7.457-13.8,14.969-20.7,22.426-.723.779.445,1.948,1.169,1.169Z" transform="translate(-864.091 -830.387)" fill="#605d5d"/>
        </g>
      </g>
      <g id="Group_151" data-name="Group 151" transform="translate(363.78 313.458)">
        <g id="Group_150" data-name="Group 150">
          <path id="Path_112" data-name="Path 112" d="M915.887,822.594c7.4-8.737,14.858-17.418,22.259-26.155.668-.835-.5-2-1.169-1.168-7.4,8.737-14.858,17.418-22.259,26.154-.723.779.445,1.948,1.168,1.169Z" transform="translate(-914.491 -794.984)" fill="#605d5d"/>
        </g>
      </g>
      <g id="Group_153" data-name="Group 153" transform="translate(386.095 301.386)">
        <g id="Group_152" data-name="Group 152">
          <path id="Path_113" data-name="Path 113" d="M954.763,785.984c1.5,2,3.005,3.951,4.507,5.954a.87.87,0,0,0,1.336.167c6.789-5.565,13.411-11.408,19.811-17.418.779-.723-.39-1.892-1.169-1.169-6.4,6.01-13.022,11.853-19.811,17.418l1.335.167c-1.5-2-3-3.951-4.507-5.954-.723-.89-2.17-.056-1.5.835Z" transform="translate(-954.592 -773.291)" fill="#605d5d"/>
        </g>
      </g>
      <g id="Group_155" data-name="Group 155" transform="translate(409.853 302.138)">
        <g id="Group_154" data-name="Group 154">
          <path id="Path_114" data-name="Path 114" d="M997.571,776.01c9.293,7.346,18.252,15.081,26.934,23.094.779.723,1.948-.445,1.169-1.169q-13.022-12.1-26.934-23.094c-.835-.668-2,.5-1.169,1.169Z" transform="translate(-997.284 -774.642)" fill="#605d5d"/>
        </g>
      </g>
      <g id="Group_157" data-name="Group 157" transform="translate(436.86 298.572)">
        <g id="Group_156" data-name="Group 156">
          <path id="Path_115" data-name="Path 115" d="M1047.031,796.039c11.464-7.29,19.7-18.531,30.885-26.21.89-.612.055-2.059-.835-1.447-11.185,7.679-19.421,18.92-30.885,26.21-.891.556-.056,2,.835,1.447Z" transform="translate(-1045.816 -768.234)" fill="#605d5d"/>
        </g>
      </g>
      <g id="Group_159" data-name="Group 159" transform="translate(458.224 297.728)">
        <g id="Group_158" data-name="Group 158" transform="translate(0)">
          <path id="Path_116" data-name="Path 116" d="M1085.2,770.881a81.845,81.845,0,0,0,10.295-2.56l-1-1c-.612,2.782-1.168,5.565-1.781,8.347-.223,1.057,1.391,1.5,1.614.445.612-2.782,1.168-5.565,1.781-8.347.111-.612-.389-1.224-1-1a81.809,81.809,0,0,1-10.295,2.56c-1.057.167-.612,1.781.39,1.558Z" transform="translate(-1084.207 -766.716)" fill="#605d5d"/>
        </g>
      </g>
      <g id="Group_161" data-name="Group 161" transform="translate(362.611 295.59)">
        <g id="Group_160" data-name="Group 160">
          <path id="Path_117" data-name="Path 117" d="M918.294,763.668c-1.948,19.866-3.951,39.733-5.9,59.6-.111,1.057,1.558,1.057,1.669,0,1.948-19.866,3.951-39.733,5.9-59.6.056-1.057-1.614-1.057-1.669,0Z" transform="translate(-912.391 -762.875)" fill="#605d5d"/>
        </g>
      </g>
      <g id="Group_163" data-name="Group 163" transform="translate(388.269 292.063)">
        <g id="Group_162" data-name="Group 162" transform="translate(0)">
          <path id="Path_118" data-name="Path 118" d="M963.452,757.351q-3.089,31.97-4.953,64.051c-.055,1.057,1.614,1.057,1.669,0q1.836-32.053,4.953-64.051c.056-1.113-1.614-1.057-1.669,0Z" transform="translate(-958.498 -756.537)" fill="#605d5d"/>
        </g>
      </g>
      <g id="Group_165" data-name="Group 165" transform="translate(435.18 291.472)">
        <g id="Group_164" data-name="Group 164" transform="translate(0)">
          <path id="Path_119" data-name="Path 119" d="M1047.473,756.268q-3.256,33.389-4.674,66.889c-.056,1.057,1.614,1.057,1.669,0q1.419-33.472,4.674-66.889c.111-1.057-1.558-1.057-1.669,0Z" transform="translate(-1042.798 -755.475)" fill="#605d5d"/>
        </g>
      </g>
      <g id="Group_167" data-name="Group 167" transform="translate(407.634 283.306)">
        <g id="Group_166" data-name="Group 166">
          <path id="Path_120" data-name="Path 120" d="M997.639,741.635q-2.17,37.228-4.34,74.4c-.056,1.057,1.614,1.057,1.669,0q2.17-37.228,4.34-74.4c.056-1.113-1.614-1.113-1.669,0Z" transform="translate(-993.298 -740.8)" fill="#605d5d"/>
        </g>
      </g>
      <g id="Group_169" data-name="Group 169" transform="translate(237.707 294.393)">
        <g id="Group_168" data-name="Group 168">
          <path id="Path_121" data-name="Path 121" d="M688.751,762.937c11.3,1,22.593-1.5,33.89-.111,1.057.111,1.057-1.558,0-1.669-11.3-1.391-22.593,1.113-33.89.111-1.113-.056-1.057,1.614,0,1.669Z" transform="translate(-687.937 -760.724)" fill="#605d5d"/>
        </g>
      </g>
      <g id="Group_171" data-name="Group 171" transform="translate(62.252 194.016)">
        <g id="Group_170" data-name="Group 170">
          <path id="Path_122" data-name="Path 122" d="M373.676,582.546c19.7-2.894,38.675,5.008,56.149,13.244,16.193,7.68,32.22,15.526,50.195,17.807,38.4,4.786,75.181-11.352,111.3-21.536,21.2-5.954,43.183-10.128,65.275-7.345,1.057.111,1.057-1.558,0-1.669-39.121-4.953-76.071,11.519-112.91,21.7-18.7,5.175-38.063,9.071-57.54,7.791-19.533-1.28-36.728-9.182-54.146-17.473-18.308-8.737-38.008-17.14-58.764-14.079-1.057.111-.556,1.725.445,1.558Z" transform="translate(-372.642 -580.346)" fill="#666262"/>
        </g>
      </g>
      <g id="Group_173" data-name="Group 173" transform="translate(167.89 174.569)">
        <g id="Group_172" data-name="Group 172">
          <path id="Path_123" data-name="Path 123" d="M563.268,582.239c49.026,2.615,94.435-19.254,141.346-29.772a209.268,209.268,0,0,1,41.18-5.4.836.836,0,0,0,0-1.669c-48.97,1.113-93.767,23.65-141.4,32.276a178.788,178.788,0,0,1-41.124,2.949c-1.057-.167-1.057,1.5,0,1.614Z" transform="translate(-562.475 -545.4)" fill="#666262"/>
        </g>
      </g>
      <g id="Group_175" data-name="Group 175" transform="translate(73.546 152.861)">
        <g id="Group_174" data-name="Group 174">
          <path id="Path_124" data-name="Path 124" d="M393.751,508.009c22.2,1.558,42.46,11.464,62.938,19.2,20.813,7.846,42.515,12.243,64.774,11.686a166.889,166.889,0,0,0,37.785-5.4.837.837,0,0,0-.445-1.614,162.363,162.363,0,0,1-68.837,3.061c-21.814-3.784-41.458-13.3-62.1-20.7-11.018-3.951-22.371-7.067-34.112-7.846-1.113-.111-1.057,1.558,0,1.614Z" transform="translate(-392.937 -506.39)" fill="#666262"/>
        </g>
      </g>
      <g id="Group_177" data-name="Group 177" transform="translate(223.112 46.865)">
        <g id="Group_176" data-name="Group 176">
          <path id="Path_125" data-name="Path 125" d="M663.93,316.518a42.27,42.27,0,0,1-2.17,8.18.825.825,0,0,0,.779,1.057q53.171,2.337,106.343.946c1.057-.056,1.057-1.725,0-1.67q-53.172,1.419-106.343-.946a12.79,12.79,0,0,1,.779,1.057,41.22,41.22,0,0,0,2.17-8.18c.223-1.057-1.391-1.5-1.558-.445Z" transform="translate(-661.709 -315.914)" fill="#666262"/>
        </g>
      </g>
      <g id="Group_179" data-name="Group 179" transform="translate(225.653 46.411)">
        <g id="Group_178" data-name="Group 178">
          <path id="Path_126" data-name="Path 126" d="M667.068,316.768,774.024,318.1a.836.836,0,0,0,0-1.669L667.068,315.1c-1.057-.056-1.057,1.614,0,1.669Z" transform="translate(-666.275 -315.098)" fill="#666262"/>
        </g>
      </g>
      <g id="Group_181" data-name="Group 181" transform="translate(330.829 47.963)">
        <g id="Group_180" data-name="Group 180">
          <path id="Path_127" data-name="Path 127" d="M857.683,318.34a34.551,34.551,0,0,0-2.393,8.18c-.167,1.057,1.447,1.5,1.614.445a34.619,34.619,0,0,1,2.226-7.791c.389-1-1.057-1.836-1.447-.835Z" transform="translate(-855.278 -317.887)" fill="#666262"/>
        </g>
      </g>
    </g>
    <g id="girl" transform="translate(99.8 308.031)">
      <g id="leg_left" transform="translate(0 172.733)">
        <path id="Path_128" data-name="Path 128" d="M128.4,892.6c-9.516,2.282-19.087,4.563-28.6,6.845,4.953,31.274,8.848,46.856,11.575,46.633q3.506-.25,4.507-35.058c5.287-1.836,10.573-3.617,15.86-5.453C130.629,901.281,129.516,896.94,128.4,892.6Z" transform="translate(-99.8 -773.887)" fill="#161616" stroke="#161616" stroke-miterlimit="10" stroke-width="3"/>
        <path id="Path_129" data-name="Path 129" d="M207.323,681.4c-1.224,3.673-3.061,9.516-4.953,16.917-3.951,15.415-4.118,21.981-8.125,41.569-4.786,23.317-7.234,27.323-8.792,29.6-7.067,10.128-16.861,14.747-22.2,17.251a69.036,69.036,0,0,1-32.053,6.344,32.583,32.583,0,0,0,4.229,19.366,31.312,31.312,0,0,0,7.4,8.459,80.548,80.548,0,0,0,33.444-5.287c5.954-2.281,21.146-8.4,32.721-23.595,8.9-11.686,11.352-23.094,14.079-35.893,5.287-24.652-1.28-28.381,5.287-49.3,3.951-12.688,8.514-18.92,5.287-23.595C229.8,677.507,217.729,679.01,207.323,681.4Z" transform="translate(-113.667 -679.273)" fill="#ec615b"/>
        <path id="Path_130" data-name="Path 130" d="M208.212,683.2c-.557,5.954-1.391,14.19-2.56,23.984-1.057,8.626-2.226,17.974-4.118,28.882-3.283,18.7-4.953,28.047-8.514,35.837-3.116,6.789-9.126,19.366-22.927,28.881-14.357,9.85-29.215,10.8-35.837,10.851a31.705,31.705,0,0,1-2.059-6.677,34.367,34.367,0,0,1-.5-9.516,75.309,75.309,0,0,0,17.028-1.781,71.49,71.49,0,0,0,21.925-8.792c5.064-3.172,10.351-6.455,14.691-12.91,2.949-4.341,4.174-8.292,6.177-16.528,2.949-12.131,4.452-18.141,5.676-27.045C198.529,718.091,201.479,703.066,208.212,683.2Z" transform="translate(-113.889 -681.015)" fill="#3d3d3d" opacity="0.09"/>
        <path id="Path_131" data-name="Path 131" d="M131.869,859.541a32.831,32.831,0,0,0,.445,9.627,35.1,35.1,0,0,0,2.17,7.012c7.624-1.614,31.608-7.735,46.466-29.66a65.826,65.826,0,0,0,8.625-18.419,46.782,46.782,0,0,1-8.737,13.578c-7.958,8.514-17.084,11.63-23.65,13.856A73.177,73.177,0,0,1,131.869,859.541Z" transform="translate(-113.951 -745.281)" fill="#3d3d3d" opacity="0.12"/>
      </g>
      <g id="leg_right" transform="translate(74.68 176.576)">
        <path id="Path_132" data-name="Path 132" d="M250.422,984.4q-6.511,17.946-13.022,35.948c30.5,3.562,46.021,4.062,46.577,1.391.445-2.059-8.57-6.121-26.934-12.076,2.5-7.4,5.064-14.8,7.568-22.2C259.882,986.459,255.152,985.4,250.422,984.4Z" transform="translate(-235.508 -818.445)" fill="#161616" stroke="#161616" stroke-miterlimit="10" stroke-width="3"/>
        <path id="Path_133" data-name="Path 133" d="M294.156,690.809c.612,8.236,1.169,19.477,1.057,32.721a403.887,403.887,0,0,1-6.678,71.452,375.508,375.508,0,0,1-21.814,72.9,38.179,38.179,0,0,1-21.814-5.62A36.571,36.571,0,0,1,234,851.687a247.369,247.369,0,0,0,11.63-25.375,250.635,250.635,0,0,0,12.3-42.626c4.508-21.647,6.789-32.443,4.953-44.018-1.781-10.963-4.674-12.855-4.229-22.2.111-2.059,1.5-26.043,16.527-30.607C282.915,684.576,290.594,688.583,294.156,690.809Z" transform="translate(-234 -686.178)" fill="#ec615b"/>
        <path id="Path_134" data-name="Path 134" d="M281.189,686.754c4.953,2.115,3.339,16.027,2.894,19.7-5.954,52.42,2.226,24.207-4.953,56.538-9.85,44.407-23.15,87.089-27.824,101.78a10.032,10.032,0,0,1-4.341-.89c-1.558-.724-1.892-1.669-3.784-3.172-2.059-1.614-2.782-1.5-4.341-2.615a12.568,12.568,0,0,1-4.341-6.066c2.894-5.676,6.344-12.966,9.85-21.758a288.359,288.359,0,0,0,9.572-28.714s8.347-28.77,9.85-50.751a43.96,43.96,0,0,0-.278-9.572c-.5-3.45-1.224-5.175-2.337-9.293a95.373,95.373,0,0,1-2.337-11.575c-1.391-13.3,5.676-23.984,9.015-27.824a16.288,16.288,0,0,1,4.953-4.062C273.621,688.09,278.462,685.586,281.189,686.754Z" transform="translate(-234.222 -686.297)" fill="#3d3d3d" opacity="0.14"/>
        <path id="Path_135" data-name="Path 135" d="M268.667,811.38c-.946,13.522-4.118,17.529-13.355,50.751-4.062,14.58-7.067,26.544-9.015,34.224A22.84,22.84,0,0,1,235,886.5a234.658,234.658,0,0,0,10.128-24.1c1.447-4.007,2.393-7.067,3.283-9.85,12.688-40.679,14.691-53.033,15.3-61.491a110.691,110.691,0,0,0,0-14.8,82.878,82.878,0,0,0-1.892-12.966A121.33,121.33,0,0,1,268.667,811.38Z" transform="translate(-234.444 -720.383)" fill="#3d3d3d" opacity="0.11"/>
      </g>
      <g id="hand_left" transform="translate(37.693 92.61)">
        <path id="Path_136" data-name="Path 136" d="M169.045,599.472c.111-.167.668-.111,1.781,0,1.892.167,2.5.445,3.728.556,1.169.056,2.727.167,3.172-.556.612-.946-1.336-2.782-4.062-6.734-4.674-6.678-4.452-9.015-4.062-10.072.111-.278.445-1.335,1.169-1.5.946-.223,2,1.057,3,2.337,1.669,2.059,2.337,3.673,2.5,3.561.334-.111-1.614-4.285-1.169-9.4.111-1.391.334-3.394,1.336-3.673.89-.278,2.226.835,3.283,2.615,0-.223.278-3.283,1.336-3.506.835-.167,1.781,1.447,2.727,3a18.034,18.034,0,0,1,1.558,3.228A3.165,3.165,0,0,1,187.3,576.1a2.883,2.883,0,0,1,2.5.668c1.28,1.168,1.169,3.228,1.169,3.951a150.081,150.081,0,0,0,.946,16.3,31.042,31.042,0,0,0,5.9-3.116c2.393-1.614,4.9-3.728,11.074-11.13,2.393-2.894,3.617-4.341,5.732-7.179,7.624-10.184,12.131-16.194,16.694-24.708a35.946,35.946,0,0,1,8.625-11.463c1.558-1.336,4.619-3.84,6.4-2.894,1.28.668,1.391,2.782,1.336,5.9-.056,6.789-.111,10.128-1.28,14.747a64.468,64.468,0,0,1-8.737,19.811c-4.4,6.455-8.792,10.184-14.468,15.025-5.9,5.008-10.8,9.126-18.531,12.243a64.878,64.878,0,0,1-13.3,3.506c-7.012,1.224-10.629,1.836-14.246.278C171.938,605.816,168.433,600.307,169.045,599.472Z" transform="translate(-168.174 -535.749)" fill="#ffa373"/>
        <g id="Group_183" data-name="Group 183" transform="translate(22.788)">
          <g id="Group_182" data-name="Group 182">
            <path id="Path_137" data-name="Path 137" d="M263.641,535.3c-6.01.835-9.571,6.455-12.8,11.074-4.118,5.9-8.013,11.964-12.02,17.918a178.349,178.349,0,0,1-12.91,17.418,91.548,91.548,0,0,1-7.179,7.512c-2.838,2.671-5.954,5.732-9.683,7.012-1,.334-.556,1.948.445,1.614,5.843-1.948,10.8-7.513,14.858-11.909a150.766,150.766,0,0,0,12.8-16.249c4.007-5.788,7.846-11.742,11.742-17.585,3.673-5.453,8.013-14.19,15.192-15.192,1.057-.167.612-1.725-.445-1.614Z" transform="translate(-208.485 -535.29)"/>
          </g>
        </g>
        <g id="Group_185" data-name="Group 185" transform="translate(24.5 3.164)">
          <g id="Group_184" data-name="Group 184">
            <path id="Path_138" data-name="Path 138" d="M212.362,610.716c7.123-.668,13.133-3.951,19.087-7.735a100.075,100.075,0,0,0,16.527-12.91A69.279,69.279,0,0,0,263.5,568.145a50.514,50.514,0,0,0,4.062-26.377c-.111-1.057-1.781-1.057-1.669,0,1.892,15.081-4.118,30.05-13.8,41.513a90.073,90.073,0,0,1-14.747,13.634c-7.346,5.454-15.693,11.3-25.042,12.187-1,.056-1,1.725.056,1.614Z" transform="translate(-211.562 -540.975)"/>
          </g>
        </g>
        <g id="Group_187" data-name="Group 187" transform="translate(0 62.318)">
          <g id="Group_186" data-name="Group 186">
            <path id="Path_139" data-name="Path 139" d="M192.836,656.137c-3.283-.056-6.455.723-9.683.946a15.06,15.06,0,0,1-9.905-2.894,10.682,10.682,0,0,1-3.339-3.172c-1.614-2.838,1.725-1.169,2.894-.835a5.041,5.041,0,0,0,5.064-.946c.835-.723-.39-1.892-1.169-1.169-2.5,2.226-7.179-2.727-8.848.111-1.28,2.17,1.669,5.287,3.116,6.455a17.578,17.578,0,0,0,8.848,4.118c4.341.5,8.681-1,13.022-.89,1.057-.056,1.057-1.725,0-1.725Z" transform="translate(-167.535 -647.275)"/>
          </g>
        </g>
        <g id="Group_189" data-name="Group 189" transform="translate(0.544 44.502)">
          <g id="Group_188" data-name="Group 188">
            <path id="Path_140" data-name="Path 140" d="M178.411,634.092c-1.113-3.728-3.617-6.622-5.62-9.905-.278-.445-3.617-6.511-2.5-7.012,1.948-.89,4.73,4.73,5.12,5.843.334,1,1.948.556,1.614-.445a12.7,12.7,0,0,0-4.786-6.511c-1.224-.835-3.005-1.447-3.561.445-.723,2.56,1.169,6.01,2.448,8.125,2,3.283,4.619,6.121,5.732,9.905a.81.81,0,1,0,1.558-.445Z" transform="translate(-168.513 -615.261)"/>
          </g>
        </g>
        <g id="Group_191" data-name="Group 191" transform="translate(6.169 37.067)">
          <g id="Group_190" data-name="Group 190">
            <path id="Path_141" data-name="Path 141" d="M182,616.591c-.5-2.059-1.169-4.174-1.5-6.288a14.826,14.826,0,0,1-.167-3.84c.167-1.669.5-3.339,1.836-1.391,2.059,3.061,2.727,7.234,3.728,10.684a.837.837,0,0,0,1.614-.445,71.446,71.446,0,0,0-2.727-8.9c-.612-1.391-2-4.507-3.951-4.507-2,0-2.059,3.116-2.17,4.507-.278,3.617.835,7.067,1.725,10.518a.824.824,0,1,0,1.614-.334Z" transform="translate(-178.622 -601.9)"/>
          </g>
        </g>
        <g id="Group_193" data-name="Group 193" transform="translate(11.43 36.431)">
          <g id="Group_192" data-name="Group 192">
            <path id="Path_142" data-name="Path 142" d="M190.092,608.182c-.278-1.169-.835-3.116-.389-4.285.835-2.17,2.059,1.725,2.393,2.56a27.839,27.839,0,0,1,2.059,9.237c.056,1.057,1.725,1.057,1.669,0a31.651,31.651,0,0,0-1.781-8.848c-.612-1.725-1.5-4.786-3.172-5.732-3.784-2.17-2.727,6.177-2.448,7.568.278,1,1.892.557,1.669-.5Z" transform="translate(-188.074 -600.756)"/>
          </g>
        </g>
        <g id="Group_195" data-name="Group 195" transform="translate(17.315 38.982)">
          <g id="Group_194" data-name="Group 194">
            <path id="Path_143" data-name="Path 143" d="M200.4,612.163c-.056-.556-.445-3.561.223-4.118,1.836-1.614,2.337,1.335,2.56,2.226a52.589,52.589,0,0,1,.5,5.954c.278,4.007.556,7.958.835,11.964.056,1.057,1.725,1.057,1.669,0-.278-4.007-.556-7.958-.835-11.964-.167-2.782.056-6.455-1.391-8.959-.779-1.336-2.115-2.56-3.673-1.558-2,1.336-1.725,4.9-1.447,6.9.111,1.057,1.725.612,1.558-.445Z" transform="translate(-198.651 -605.34)"/>
          </g>
        </g>
        <path id="Path_144" data-name="Path 144" d="M246.77,538.8c-.278,0-.056,4.4-1.781,10.518-1.336,4.674-3.506,9.126-10.517,18.364-6.455,8.514-11.13,14.691-19.254,21.925-8.9,7.958-13.356,11.909-19.477,13.411-13.244,3.283-25.431-4.34-26.6-1.781-.612,1.391,2.727,4.174,4.007,5.119,1.614,1.169,4.73,3.005,12.076,3.116a47.855,47.855,0,0,0,15.192-2.226c14.135-4.674,23.428-13.912,28.381-19.032,6.566-6.678,11.909-12.131,15.414-21.258C249.831,552.768,247.326,538.8,246.77,538.8Z" transform="translate(-168.214 -536.847)" fill="#3d3d3d" opacity="0.09"/>
        <path id="Path_145" data-name="Path 145" d="M261.372,577.393c-.39-.223-2.727,3.673-6.066,8.292a152.506,152.506,0,0,1-18.364,20.59c-5.676,5.175-16.027,13.189-32.443,19.477a36.635,36.635,0,0,0,14.079-1.781c1.781-.612,6.233-2.281,16.973-11.63,8.57-7.457,13.356-11.575,18.141-18.809C258.868,585.8,261.929,577.671,261.372,577.393Z" transform="translate(-183.93 -553.959)" fill="#3d3d3d" opacity="0.13"/>
      </g>
      <g id="torso" transform="translate(91.595 84.909)">
        <path id="Path_146" data-name="Path 146" d="M295.28,523.56c-3.506,1.224-5.676,3.395-7.958,5.676-6.344,6.4-8.625,13.634-10.406,19.477-5.342,17.585-8.069,26.322-9.293,34a177.3,177.3,0,0,0-2.282,34,68.838,68.838,0,0,0,12.243,6.789c6.01,2.56,11.408,4.841,18.364,4.285a28.786,28.786,0,0,0,12.91-4.285,98.961,98.961,0,0,1,2.5-15.86c2.782-11.742,5.787-15.136,10.684-29.716,3.84-11.519,5.732-17.418,5.453-24.485-.222-4.953-.668-14.636-7.958-22.2C313.978,525.507,304.017,520.5,295.28,523.56Z" transform="translate(-264.784 -521.975)" fill="#f5eaea"/>
        <g id="Group_197" data-name="Group 197" transform="translate(0 1.85)">
          <g id="Group_196" data-name="Group 196">
            <path id="Path_147" data-name="Path 147" d="M292.39,524.9c-6.678,4.007-10.74,10.684-14.079,17.529a117.283,117.283,0,0,0-8.18,23.205c-4.062,16.694-5.064,34-5.732,51.141-.056,1.057,1.614,1.057,1.669,0,.612-16.361,1.558-32.777,5.231-48.8a115.506,115.506,0,0,1,7.624-22.927c3.283-7.179,7.346-14.58,14.3-18.7.89-.557.056-2-.835-1.447Z" transform="translate(-264.398 -524.775)"/>
          </g>
        </g>
        <g id="Group_199" data-name="Group 199" transform="translate(43.735 4.251)">
          <g id="Group_198" data-name="Group 198">
            <path id="Path_148" data-name="Path 148" d="M348.783,530.431a32,32,0,0,1,12.02,19.644c1.558,8.959-.612,18.086-3.617,26.488-2.894,8.125-6.678,15.86-9.293,24.1a108.7,108.7,0,0,0-4.9,24.93c-.111,1.057,1.558,1.057,1.669,0a108.46,108.46,0,0,1,6.01-27.88c3.061-8.57,7.123-16.75,9.738-25.487,2.337-7.846,3.561-16.361,1.614-24.485a32.8,32.8,0,0,0-12.02-18.419c-.89-.723-2.059.445-1.224,1.113Z" transform="translate(-342.99 -529.09)"/>
          </g>
        </g>
        <g id="Group_201" data-name="Group 201" transform="translate(0.078 93.566)">
          <g id="Group_200" data-name="Group 200">
            <path id="Path_149" data-name="Path 149" d="M264.8,690.987a45.888,45.888,0,0,0,24.04,11.241c7.123,1,16.3,1.057,20.979-5.342.612-.89-.835-1.725-1.447-.835-4.674,6.344-15.025,5.509-21.814,4.118a44.4,44.4,0,0,1-20.59-10.351c-.779-.723-1.948.445-1.169,1.169Z" transform="translate(-264.538 -689.591)"/>
          </g>
        </g>
        <path id="Path_150" data-name="Path 150" d="M302.872,523.259c1.892,3.283-5.12,9.349-10.517,18.809-3.45,6.01-4.786,11.241-7.4,21.7-6.121,24.485-4.953,52.309-4.452,60.378-4.786-2.56-9.516-5.064-14.3-7.624.223-5.454.668-13.244,1.558-22.593,1.447-14.8,2.282-22.871,5.12-33.333,2.5-9.071,4.953-17.529,11.63-26.6a62.4,62.4,0,0,1,12.3-12.521C298.921,521.367,301.87,521.534,302.872,523.259Z" transform="translate(-265.197 -521.452)" fill="#3d3d3d" opacity="0.11"/>
        <path id="Path_151" data-name="Path 151" d="M281.575,554.9c.723.223-2.226,11.853-6.956,37.562-3.116,16.861-3.84,22.927-1.336,30.44,3.228,9.627,9.738,15.47,8.514,16.75-.779.779-4.118-.334-15.637-8.959a179.405,179.405,0,0,1,5.342-48.08C275.342,567.417,280.8,554.618,281.575,554.9Z" transform="translate(-265.158 -536.283)" fill="#3d3d3d" opacity="0.15"/>
      </g>
      <g id="head" transform="translate(91.95 16.246)">
        <path id="Path_152" data-name="Path 152" d="M367.408,482.053c2.615,2.393,2.281,7.067,1.781,13.856-.334,4.73-.5,7.123-2.115,9.4-3.339,4.73-10.907,6.9-16.861,4.229a13.43,13.43,0,0,1-6.4-6.233c-2.894-6.01.111-12.02.723-13.133C349.211,481.441,362.734,477.712,367.408,482.053Z" transform="translate(-299.426 -434.509)" fill="#5222d0"/>
        <path id="Path_153" data-name="Path 153" d="M362.5,428.158c2.115.445,3.395,3.394,5.954,9.349a64.15,64.15,0,0,1,3.617,11.13,65.666,65.666,0,0,1,1.28,8.458c-1.5.445-3,.835-4.507,1.28a34.284,34.284,0,0,1-2.5,8.069c-2,4.452-3.673,8.292-7.568,10.072-4.508,2.059-9.349.223-10.963-.556a33.355,33.355,0,0,1-2.671,5.231,31.722,31.722,0,0,1-2.5,3.395c-5.064,1.28-7.4-.056-8.292-.723-4.674-3.45-4.285-14.58,2.894-27.156-.39-.612-1-1.5-1.781-2.5-1.614-2-2.17-2.059-2.894-3.228-.223-.334-1.948-3.283-.556-5.954a4.671,4.671,0,0,1,3.617-2.5c1.892-.167,2.5,1.336,4.118,1.781,2.782.835,5.843-2.17,13.467-9.349C359.606,428.937,360.886,427.824,362.5,428.158Z" transform="translate(-294.406 -411.387)" fill="#ffa373"/>
        <g id="Group_203" data-name="Group 203" transform="translate(73.395 25.119)">
          <g id="Group_202" data-name="Group 202">
            <path id="Path_154" data-name="Path 154" d="M396.967,443.98a71.957,71.957,0,0,1,4.9,20.478c.056.779,1.336.779,1.28,0a72.394,72.394,0,0,0-4.953-20.812c-.278-.779-1.5-.445-1.224.334Z" transform="translate(-396.927 -443.203)"/>
          </g>
        </g>
        <g id="Group_205" data-name="Group 205" transform="translate(73.575 45.811)">
          <g id="Group_204" data-name="Group 204">
            <path id="Path_155" data-name="Path 155" d="M402.342,480.394c-1.5.167-3,.389-4.507.556-.779.111-.779,1.336,0,1.28,1.5-.167,3.005-.39,4.507-.556.779-.167.779-1.391,0-1.28Z" transform="translate(-397.25 -480.387)"/>
          </g>
        </g>
        <g id="Group_207" data-name="Group 207" transform="translate(49.104 46.488)">
          <g id="Group_206" data-name="Group 206">
            <path id="Path_156" data-name="Path 156" d="M378,482.047a31.734,31.734,0,0,1-7.012,15.247c-4.452,5.231-11.519,2.5-16.973.278-.723-.334-1.057.89-.334,1.224,5.12,2.115,12.465,5.008,17.084.557,4.563-4.341,7.29-10.851,8.4-16.973.167-.779-1-1.113-1.169-.334Z" transform="translate(-353.275 -481.603)"/>
          </g>
        </g>
        <g id="Group_209" data-name="Group 209" transform="translate(48.176 64.526)">
          <g id="Group_208" data-name="Group 208">
            <path id="Path_157" data-name="Path 157" d="M356,514.342a44.1,44.1,0,0,1-4.285,7.568c-.445.668.612,1.28,1.057.612a46.331,46.331,0,0,0,4.285-7.568c.334-.724-.723-1.336-1.057-.612Z" transform="translate(-351.607 -514.017)"/>
          </g>
        </g>
        <g id="Group_211" data-name="Group 211" transform="translate(49.219 62.752)">
          <g id="Group_210" data-name="Group 210">
            <path id="Path_158" data-name="Path 158" d="M353.659,511.926a10.911,10.911,0,0,0,2.838,2.226.611.611,0,1,0,.612-1.057,10.434,10.434,0,0,1-2.616-2.059c-.5-.612-1.391.278-.835.89Z" transform="translate(-353.482 -510.83)"/>
          </g>
        </g>
        <g id="Group_213" data-name="Group 213" transform="translate(67.292 31.897)">
          <g id="Group_212" data-name="Group 212">
            <path id="Path_159" data-name="Path 159" d="M387.429,458.453a1.958,1.958,0,0,1,.167-2.059c-.334-.111-.723-.167-1.057-.278a11.656,11.656,0,0,1,.111,2.782l.612-.612a1.165,1.165,0,0,0,.222.334c.167-.779-1.057-1.113-1.224-.334a1,1,0,0,0,1,1.28.584.584,0,0,0,.612-.612,11.711,11.711,0,0,0-.111-3.116.644.644,0,0,0-1.057-.278,3.114,3.114,0,0,0-.334,3.561c.334.668,1.447.056,1.057-.668Z" transform="translate(-385.96 -455.383)"/>
          </g>
        </g>
        <g id="Group_215" data-name="Group 215" transform="translate(64.157 24.243)">
          <g id="Group_214" data-name="Group 214">
            <path id="Path_160" data-name="Path 160" d="M381.592,444.84a3.13,3.13,0,0,1,4.73-1.391c.668.445,1.28-.668.612-1.057a4.376,4.376,0,0,0-6.566,2.115c-.278.779.946,1.113,1.224.334Z" transform="translate(-380.327 -441.628)"/>
          </g>
        </g>
        <g id="Group_217" data-name="Group 217" transform="translate(61.671 36.356)">
          <g id="Group_216" data-name="Group 216">
            <path id="Path_161" data-name="Path 161" d="M377.051,464.511h-.723c-.056-.111-.056-.223-.111-.334.111-.39.278-.5.612-.39l.223.223v-.056a.611.611,0,0,0-1.057.612.964.964,0,0,0,.89.39.835.835,0,0,0,.612-.779.845.845,0,0,0-1.558-.39.628.628,0,0,0,.223.835.574.574,0,0,0,.89-.111Z" transform="translate(-375.859 -463.396)"/>
          </g>
        </g>
        <g id="Group_219" data-name="Group 219" transform="translate(64.336 39.152)">
          <g id="Group_218" data-name="Group 218">
            <path id="Path_162" data-name="Path 162" d="M381.957,469.3h0a3.172,3.172,0,0,1-.445.389h-.278a.055.055,0,0,1-.056-.056l-.223-.223v.056c0-.167-.056-.334-.056-.5l.167-.167a.642.642,0,0,0-.223.835c.167.278.612.445.835.223.39-.278.668-.835.223-1.224a.675.675,0,0,0-.723-.167c-.278.056-.389.223-.5.5a.633.633,0,0,0,.445.779.667.667,0,0,0,.835-.445Z" transform="translate(-380.648 -468.419)"/>
          </g>
        </g>
        <g id="Group_221" data-name="Group 221" transform="translate(60.532 40.087)">
          <g id="Group_220" data-name="Group 220">
            <path id="Path_163" data-name="Path 163" d="M374.529,470.1h-.111a.641.641,0,0,0,0,1.28h.111a.64.64,0,0,0,0-1.28Z" transform="translate(-373.812 -470.1)"/>
          </g>
        </g>
        <g id="Group_223" data-name="Group 223" transform="translate(66.229 47.533)">
          <g id="Group_222" data-name="Group 222">
            <path id="Path_164" data-name="Path 164" d="M384.078,484.27c.89,2.727,2.282,5.175,5.064,6.233.723.278,1.057-.89.334-1.224-2.282-.89-3.45-3.172-4.174-5.4a.644.644,0,0,0-1.224.39Z" transform="translate(-384.05 -483.481)"/>
          </g>
        </g>
        <g id="Group_225" data-name="Group 225" transform="translate(64.902 46.862)">
          <g id="Group_224" data-name="Group 224">
            <path id="Path_165" data-name="Path 165" d="M382.853,484.4a2.222,2.222,0,0,1,1.558-.89.682.682,0,0,0,.445-.779.633.633,0,0,0-.779-.445,3.294,3.294,0,0,0-2.282,1.447c-.5.668.557,1.336,1.057.668Z" transform="translate(-381.664 -482.276)"/>
          </g>
        </g>
        <g id="Group_227" data-name="Group 227" transform="translate(36.484 30.765)">
          <g id="Group_226" data-name="Group 226">
            <path id="Path_166" data-name="Path 166" d="M336.553,464.34c-3.395,1.224-5.231-4.007-4.619-6.455a4.388,4.388,0,0,1,2.56-3.172c1.836-.556,3.506.891,4.674,2,.556.557,1.447-.334.89-.89-1.5-1.447-3.339-2.838-5.565-2.393-2,.389-3.228,2.281-3.728,4.118-.89,3.394,1.836,9.516,6.121,8.013.779-.278.445-1.5-.334-1.224Z" transform="translate(-330.597 -453.348)"/>
          </g>
        </g>
        <path id="Path_167" data-name="Path 167" d="M328.733,416.058c-.668.779-1.669,2.059-2.838,3.728-4.229,6.177-3.84,8.681-6.789,10.462a9.974,9.974,0,0,1-8.459.723c-2-.835-2.56-2.115-4.285-2.059a5.3,5.3,0,0,0-4.4,3.45c-.89,2.17,0,4.174.612,5.454.556,1.169,1.335,2.894,3,3.283a3.7,3.7,0,0,0,2.5-.445c-.056.612-.167,1.558-.223,2.727a54.925,54.925,0,0,0,.5,10.351c.556,5.231,1.057,9.4-.5,13.356-2.393,5.9-8.347,8.514-10.517,9.46a25.007,25.007,0,0,1-18.976.167c-1.836-.779-10.629-4.4-12.8-12.632-1.336-4.953.167-9.961.779-12.076a29.207,29.207,0,0,1,2.449-5.676,30.78,30.78,0,0,1,10.907-11.074,87.211,87.211,0,0,1,5.954-15.637c3.506-7.123,5.453-11.074,9.905-14.747a30.967,30.967,0,0,1,17.7-6.733,35.559,35.559,0,0,1,15.693,2.671c5.509,2.226,11.964,4.9,14.635,11.519,3.061,7.735-1.28,15.415-2.115,16.861a11.407,11.407,0,0,0-1.614-3.784c-1.391-2.059-2.949-2.894-5.287-4.508C333.073,419.731,331.07,418.229,328.733,416.058Z" transform="translate(-265.035 -398.064)" fill="#5222d0"/>
        <g id="Group_229" data-name="Group 229" transform="translate(40.354 71.424)">
          <g id="Group_228" data-name="Group 228">
            <path id="Path_168" data-name="Path 168" d="M337.968,527.964a9.461,9.461,0,0,0,7.846.835c1-.334.557-1.948-.445-1.614a8,8,0,0,1-6.566-.668c-.946-.5-1.781.946-.835,1.447Z" transform="translate(-337.552 -526.413)"/>
          </g>
        </g>
        <path id="Path_169" data-name="Path 169" d="M303.376,468.158a3.543,3.543,0,0,0,6.4.612,18.142,18.142,0,0,0,1.169,9.683,19.72,19.72,0,0,0,8.9,9.516,22.751,22.751,0,0,0,11.853,2.894,8.4,8.4,0,0,1-3.506,3.283c-4.508,2.226-9.238-.779-9.516-.946a35.122,35.122,0,0,1-3.506,6.01c-1.391,1.892-1.948,2.337-2.337,2.5-2.671,1.558-6.177-.056-7.179-.556a28.451,28.451,0,0,1-4.841,3.673,25.991,25.991,0,0,1-13.189,3.9,27.618,27.618,0,0,1-16.082-6.01,16.8,16.8,0,0,1-4.285-5.064,16.511,16.511,0,0,1-1.725-6.4c-.612-6.956,2.393-12.855,4.062-15.526a28.648,28.648,0,0,1,9.293-9.126c-.167.612-2.226,9.238,2.337,13.411,5.732,5.175,18.7.278,21.536-7.179A10.066,10.066,0,0,0,303.376,468.158Z" transform="translate(-265.221 -428.461)" fill="#3d3d3d" opacity="0.14"/>
        <path id="Path_170" data-name="Path 170" d="M345.717,497.09c-.445.223.612,3.116,1.614,5.175a28.437,28.437,0,0,0,5.064,7.4c.39-1,.779-2,1.169-2.949a14.89,14.89,0,0,0,11.408.111c-8.57-.167-12.91-2.782-15.3-5.175C347.72,499.706,346.162,496.868,345.717,497.09Z" transform="translate(-300.773 -441.978)" fill="#3d3d3d" opacity="0.07"/>
      </g>
      <g id="hand_right" transform="translate(134.068 0)">
        <path id="Path_171" data-name="Path 171" d="M593.316,391.465c-.779-.445-.946-1.5-1.057-2.226-.39-2.615,1.558-4.73,1.892-5.175,2.059-2.282,3.227-1.113,5.175-3.228,1.447-1.558,1.336-2.838,3.561-4.9,1.447-1.391,1.948-1.224,2.059-1.169.779.334.111,2.059.89,4.73.668,2.226,1.5,2.226,1.781,4.118.056.5.445,3.005-1.057,4.452-.668.668-1.558.835-3.395,1.169-2.115.389-2.393.167-3.84.445C595.821,390.352,594.6,392.189,593.316,391.465Z" transform="translate(-452.261 -371.47)" fill="#fff"/>
        <path id="Path_172" data-name="Path 172" d="M573.142,400.6c-8.4,8.681-16.806,17.418-25.209,26.1a3.437,3.437,0,0,0-.167,4.285,3.354,3.354,0,0,0,4.452.723c8.625-10.017,17.2-20.089,25.821-30.106C576.425,401.268,574.811,400.934,573.142,400.6Z" transform="translate(-432.253 -382.942)"/>
        <path id="Path_173" data-name="Path 173" d="M532.711,485.366c.278.723-.612,2.226-5.453,5.453-1.391-.278-2.56-1.057-2.782-2.059-.334-1.67,2.059-3.061,3.116-3.562C529.539,484.309,532.321,484.364,532.711,485.366Z" transform="translate(-422.206 -420.185)"/>
        <path id="Path_174" data-name="Path 174" d="M353.825,491.25c-3,.668-8.292,1.948-10.74,6.288a11.364,11.364,0,0,0-1.169,6.9,13.538,13.538,0,0,0,7.568,10.406c4.563,2.059,9.293.5,11.686-.334,20.813-7.179,31.219-10.74,35.448-12.855,12.242-6.177,25.876-13.133,41.4-26.043,4.007-3.339,7.179-6.288,9.4-8.4a8.93,8.93,0,0,0,5.287,1.169c1.948-.223,3.228-1.113,5.12-2.448a15.4,15.4,0,0,0,4.285-4.118,15.2,15.2,0,0,0,2.17-5.12c.39-1.614,1.169-4.507.167-5.12-.723-.445-1.5.779-3.45.835-.167,0-2.56,0-3.617-1.5-1-1.391.056-2.671-.835-3.784-.946-1.224-3.394-1.113-4.953-.668-3.617,1.113-5.342,5.12-6.455,7.234-3.061,6.066-7.457,9.349-15.637,15.526-6.344,4.786-12.02,7.012-19.644,10.072a114.191,114.191,0,0,1-16.3,5.287C380.814,487.577,370.742,487.465,353.825,491.25Z" transform="translate(-341.204 -403.141)" fill="#ffa373"/>
        <g id="Group_231" data-name="Group 231" transform="translate(2.093 42.206)">
          <g id="Group_230" data-name="Group 230">
            <path id="Path_175" data-name="Path 175" d="M345.883,496.348c5.732-5.732,14.747-5.954,22.315-7.012,8.848-1.224,17.7-2.56,26.377-4.619,15.415-3.561,30.718-9.516,42.793-19.978a52.646,52.646,0,0,0,8.57-9.349c2.226-3.172,6.455-12.521,11.686-8.069.835.668,2-.5,1.169-1.169a6.224,6.224,0,0,0-7.012-.668c-3.283,1.669-4.786,5.342-6.733,8.292-5.064,7.679-12.743,13.578-20.645,18.086-16.639,9.46-35.782,12.855-54.479,15.581-8.458,1.224-18.7,1.336-25.153,7.735-.835.723.334,1.892,1.113,1.169Z" transform="translate(-344.483 -444.715)"/>
          </g>
        </g>
        <g id="Group_233" data-name="Group 233" transform="translate(0 63.006)">
          <g id="Group_232" data-name="Group 232">
            <path id="Path_176" data-name="Path 176" d="M342.991,510.922c-3.728,6.344-3.005,14.747,3.228,19.254,7.457,5.4,17.919.278,25.542-2.337A230.026,230.026,0,0,0,448,483.487c.835-.723-.39-1.892-1.169-1.169-24.986,21.814-55.314,39.065-87.479,47.69-5.509,1.5-11.241,1.169-14.8-3.84-3.116-4.285-2.727-9.961-.111-14.357a.851.851,0,0,0-1.447-.89Z" transform="translate(-340.722 -482.091)"/>
          </g>
        </g>
        <g id="Group_235" data-name="Group 235" transform="translate(105.594 46.236)">
          <g id="Group_234" data-name="Group 234">
            <path id="Path_177" data-name="Path 177" d="M547.072,452.982a13.842,13.842,0,0,1,.445,4.007c-.222,1.836-1.113,2.448-1.781,3.951-.278.668-.334,1.336-.556,2-.445,1.5-1.057,1.836-2.115,2.727a29.9,29.9,0,0,0-2.838,3.116c-1.614,1.725-2.56,1.169-4.563.946-1.447-.167-2.949-.39-4.4-.557-1.057-.111-1.057,1.558,0,1.669,2.393.334,6.455,1.725,8.681.557a5.76,5.76,0,0,0,1.948-2.059,6.877,6.877,0,0,1,2.5-2.393c.557-.278.835-.056,1.336-.5a3.534,3.534,0,0,0,.946-2.059,17.593,17.593,0,0,1,1.725-4.508c1.169-2.282.779-4.841.278-7.234a.824.824,0,1,0-1.614.334Z" transform="translate(-530.475 -451.955)"/>
          </g>
        </g>
        <g id="Group_237" data-name="Group 237" transform="translate(114.776 43.765)">
          <g id="Group_236" data-name="Group 236">
            <path id="Path_178" data-name="Path 178" d="M547.545,447.9a3.88,3.88,0,0,0,1.725,5.509c2.337,1.057,4.953-.5,6.121-2.56a.835.835,0,0,0-1.447-.835c-.723,1.28-2.226,2.448-3.728,1.948a2.155,2.155,0,0,1-1.224-3.228c.556-.89-.89-1.725-1.447-.835Z" transform="translate(-546.974 -447.516)"/>
          </g>
        </g>
        <g id="Group_239" data-name="Group 239" transform="translate(114.978 16.933)">
          <g id="Group_238" data-name="Group 238">
            <path id="Path_179" data-name="Path 179" d="M548.764,427.29q12.6-13.1,24.875-26.544c.723-.779-.445-2-1.169-1.169Q560.2,413.016,547.6,426.121c-.779.723.39,1.948,1.169,1.169Z" transform="translate(-547.338 -399.297)"/>
          </g>
        </g>
        <g id="Group_241" data-name="Group 241" transform="translate(121.741 17.537)">
          <g id="Group_240" data-name="Group 240">
            <path id="Path_180" data-name="Path 180" d="M560.887,429.552c8.013-9.238,15.971-18.475,23.984-27.713.723-.835-.5-2-1.169-1.169-8.013,9.238-15.971,18.475-23.984,27.713-.724.835.445,2,1.169,1.169Z" transform="translate(-559.491 -400.384)"/>
          </g>
        </g>
        <g id="Group_243" data-name="Group 243" transform="translate(101.254 64.702)">
          <g id="Group_242" data-name="Group 242">
            <path id="Path_181" data-name="Path 181" d="M531.259,485.4c-1.057,1.057-2.115,2.17-3.172,3.228a8.959,8.959,0,0,1-1.224,1.28c-1.391.723-2.115-.668-2.616-1.558a.835.835,0,0,0-1.447.835c.835,1.391,2.226,3.172,4.062,2.616a5.946,5.946,0,0,0,2.393-2c1.057-1.057,2.115-2.17,3.172-3.227.779-.779-.445-1.948-1.169-1.169Z" transform="translate(-522.675 -485.138)"/>
          </g>
        </g>
        <g id="Group_245" data-name="Group 245" transform="translate(146.226 1.014)">
          <g id="Group_244" data-name="Group 244">
            <path id="Path_182" data-name="Path 182" d="M603.941,388.448c3.339,1.5,7.4.612,9.126-2.838a7,7,0,0,0,.278-5.4c-1.057-2.782-4.9-5.231-1.5-8.125.835-.723-.39-1.892-1.169-1.169a5.008,5.008,0,0,0-1.224,6.455c1.224,2.17,3.172,3.395,2.56,6.233A5.016,5.016,0,0,1,604.831,387c-1.057-.445-1.892,1-.89,1.447Z" transform="translate(-603.491 -370.691)"/>
          </g>
        </g>
        <g id="Group_247" data-name="Group 247" transform="translate(139.492 2.268)">
          <g id="Group_246" data-name="Group 246">
            <path id="Path_183" data-name="Path 183" d="M593.065,387.611a6.376,6.376,0,0,1,3.395-5.287,23.943,23.943,0,0,0,3.283-1.892c2.059-1.669,2.671-4.73,5.12-5.954.946-.5.111-1.892-.835-1.447a6.949,6.949,0,0,0-3,3.061,10.524,10.524,0,0,1-4.4,4.285c-3.339,1.725-4.73,3.45-5.231,7.234-.111,1.057,1.558,1.057,1.669,0Z" transform="translate(-591.391 -372.944)"/>
          </g>
        </g>
        <g id="Group_249" data-name="Group 249" transform="translate(139.866 16.501)">
          <g id="Group_248" data-name="Group 248">
            <path id="Path_184" data-name="Path 184" d="M593.085,400.568a4.539,4.539,0,0,1,4.507.612c.835.668,1.67-.779.835-1.447a5.965,5.965,0,0,0-5.843-.779c-.946.389-.5,2,.5,1.614Z" transform="translate(-592.063 -398.521)"/>
          </g>
        </g>
        <g id="Group_251" data-name="Group 251" transform="translate(145.388 8.617)">
          <g id="Group_250" data-name="Group 250">
            <path id="Path_185" data-name="Path 185" d="M603,386.605a11.664,11.664,0,0,1,6.622-.223.837.837,0,0,0,.445-1.614,13.785,13.785,0,0,0-7.513.223c-1,.334-.557,1.948.445,1.614Z" transform="translate(-601.985 -384.353)" fill="#5222d0"/>
          </g>
        </g>
        <g id="Group_253" data-name="Group 253" transform="translate(144.158 0.694)">
          <g id="Group_252" data-name="Group 252">
            <path id="Path_186" data-name="Path 186" d="M601.069,380.291c4.062-1.725,5.287-6.455,9.071-8.57l-1-1.336c-2.894,2.616-.334,6.177.39,9.071.39-.334.835-.612,1.224-.946a13.787,13.787,0,0,0-6.511-1.113c.223.445.5.835.723,1.28a25.944,25.944,0,0,1,2.782-4.174c-.445-.278-.946-.556-1.391-.835a7.813,7.813,0,0,0-.779,3.84.835.835,0,0,0,.779.612c1.335-.056,1.669-1.892,2.115-2.894-.5-.167-1.057-.278-1.558-.445a11.072,11.072,0,0,1,.278,2.727c.111-.223.278-.5.39-.723-.39.223-1.892.056-2.56.223a10.244,10.244,0,0,0-3.061,1.169.844.844,0,0,0,.445,1.558c1.391-.111,2.782-.278,4.173-.39,1.057-.111,1.057-1.781,0-1.669-1.391.111-2.782.278-4.173.39.167.5.278,1.057.445,1.558a9.035,9.035,0,0,1,3.784-1.113c.5-.056,1.28.167,1.725-.167,1-.723.334-2.449.222-3.506-.111-.723-1.169-1.28-1.558-.445-.056.167-.946,2.059-.668,2.059a9.48,9.48,0,0,1,.779.612c-.167-.835.5-2.226.779-2.949.278-.779-.89-1.447-1.391-.835a27.919,27.919,0,0,0-3.061,4.508.862.862,0,0,0,.723,1.28,11.637,11.637,0,0,1,5.676.89c.668.278,1.447-.167,1.224-.946-.556-2.226-3-5.509-.835-7.457.723-.668-.223-1.781-1-1.336-3.729,2.115-5.064,6.845-9.071,8.57-.946.5-.056,1.892.89,1.5Z" transform="translate(-599.775 -370.116)" fill="#5222d0"/>
          </g>
        </g>
        <g id="Group_255" data-name="Group 255" transform="translate(143.838 0.51)">
          <g id="Group_254" data-name="Group 254">
            <path id="Path_187" data-name="Path 187" d="M608.938,369.849c-2.337,1.447-3.784,3.617-5.509,5.676a36.377,36.377,0,0,1-3.394,3.172c-.445.389-.835.612-.835,1.224a.346.346,0,0,0,.223.334c3.506,1.5,7.4-2.5,10.851.334a.425.425,0,0,0,.668-.111c1-1.447-1.224-2.838-2.059-3.728-.278-.278-.835,0-.723.39a1.581,1.581,0,0,0,.5.946c.334.445,1.057,0,.723-.445-.111-.278-.278-.5-.389-.779-.223.111-.445.278-.723.39.39.39,2.449,2,1.948,2.727.223-.056.445-.056.668-.111a5.881,5.881,0,0,0-4.062-1.336,22.071,22.071,0,0,0-2.671.39,14.1,14.1,0,0,1-2.115.39c-.779.111-1.725.556-1.113-.5.334-.556,1.336-1.057,1.781-1.5a17.2,17.2,0,0,0,1.836-2.17,20.332,20.332,0,0,1,4.73-4.786c.556-.056.111-.779-.334-.5Z" transform="translate(-599.2 -369.786)" fill="#5222d0"/>
          </g>
        </g>
        <g id="Group_257" data-name="Group 257" transform="translate(144.684 9.126)">
          <g id="Group_256" data-name="Group 256">
            <path id="Path_188" data-name="Path 188" d="M601.043,387.4c1.669.223,3.283-.334,4.953-.556a7.932,7.932,0,0,1,3.784.5,3.383,3.383,0,0,0,1.948.334c.278-.056.445-.223.389-.5a3.862,3.862,0,0,0-.668-1.725c-.278-.445-1,0-.723.445a2.564,2.564,0,0,1,.612,1.5c.111-.167.278-.334.39-.5-1.558.167-3.116-.946-4.73-.946-1.892.056-3.84.946-5.732.668-.556-.111-.779.668-.223.779Z" transform="translate(-600.721 -385.269)" fill="#5222d0"/>
          </g>
        </g>
        <g id="Group_259" data-name="Group 259" transform="translate(152.171)">
          <g id="Group_258" data-name="Group 258">
            <path id="Path_189" data-name="Path 189" d="M614.912,370.89a2.89,2.89,0,0,1,1.057-.946c.111-.056.5-.334.612-.223.167.111-.278.445-.39.5a5.335,5.335,0,0,0-1.447,2.059c-.223.5.612.723.779.223a6.107,6.107,0,0,1,1.5-1.892.917.917,0,0,0,.223-1.336c-.835-1.113-2.448.334-3,1.057-.278.39.334,1,.668.556Z" transform="translate(-614.173 -368.869)" fill="#5222d0"/>
          </g>
        </g>
        <g id="Group_261" data-name="Group 261" transform="translate(152.898 0.098)">
          <g id="Group_260" data-name="Group 260">
            <path id="Path_190" data-name="Path 190" d="M617.383,369.132a4.437,4.437,0,0,0-1.892,2.671c-.111.5.668.724.779.223a3.707,3.707,0,0,1,1.5-2.17c.5-.334.056-1.057-.39-.723Z" transform="translate(-615.48 -369.046)" fill="#5222d0"/>
          </g>
        </g>
        <g id="Group_263" data-name="Group 263" transform="translate(1.406 86.816)">
          <g id="Group_262" data-name="Group 262">
            <path id="Path_191" data-name="Path 191" d="M344.78,531.791c1.781-3.506,8.236-4.841,11.8-5.286,1.057-.167.612-1.781-.445-1.614-4.007.557-10.74,2.115-12.8,6.066-.445.946,1,1.836,1.447.835Z" transform="translate(-343.249 -524.878)"/>
          </g>
        </g>
        <path id="Path_192" data-name="Path 192" d="M342.6,509.547a168.245,168.245,0,0,0,20.924-2.671c24.708-4.73,42.292-13.912,53.033-19.588a226.933,226.933,0,0,0,33.667-21.981,30.634,30.634,0,0,0,11.408-6.344c1.5-1.336,2.616-2.671,3.172-2.393.89.5-.5,5.12-2.393,8.458a20.1,20.1,0,0,1-4.229,5.287c-1.558,1.336-2.449,2.281-3.951,2.671a7.893,7.893,0,0,1-6.121-1.336c-2.059,1.614-5.064,4.007-8.792,6.845-15.025,11.408-22.593,17.14-32.554,22.593-9.182,5.008-16.861,8.013-31.831,13.8-1.391.557-3.228,1.169-6.9,2.393-9.794,3.283-12.131,3.673-14.858,3.172a13.135,13.135,0,0,1-6.344-2.894A13.78,13.78,0,0,1,342.6,509.547Z" transform="translate(-341.555 -407.75)" fill="#3d3d3d" opacity="0.13"/>
        <path id="Path_193" data-name="Path 193" d="M421.894,516.1c-.111-.167.835-.946,21.7-14.19,27.49-17.474,25.542-15.915,28.436-18.03,12.02-8.9,17.362-14.914,20.145-13.133,1.892,1.224,2.226,5.676.167,7.624-1.781,1.725-5.509,1.558-8.848-.89a224.237,224.237,0,0,1-29.939,22.482C437.977,509.593,422.284,516.771,421.894,516.1Z" transform="translate(-376.72 -413.917)" fill="#3d3d3d" opacity="0.19"/>
      </g>
    </g>
  </g>
</svg>
